<svg width="1024" height="200" viewBox="0 0 1024 200" fill="none" xmlns="http://www.w3.org/2000/svg">
<rect width="1024" height="200" fill="white"/>
<path d="M187.92 150.969C187.92 150.504 187.847 150.094 187.701 149.738C187.564 149.374 187.318 149.046 186.963 148.754C186.617 148.462 186.133 148.184 185.514 147.92C184.903 147.656 184.128 147.387 183.189 147.113C182.205 146.822 181.316 146.498 180.523 146.143C179.73 145.778 179.051 145.363 178.486 144.898C177.921 144.434 177.488 143.9 177.188 143.299C176.887 142.697 176.736 142.009 176.736 141.234C176.736 140.46 176.896 139.744 177.215 139.088C177.534 138.432 177.99 137.862 178.582 137.379C179.184 136.887 179.899 136.504 180.729 136.23C181.558 135.957 182.483 135.82 183.504 135.82C184.999 135.82 186.266 136.107 187.305 136.682C188.353 137.247 189.15 137.99 189.697 138.91C190.244 139.822 190.518 140.797 190.518 141.836H187.893C187.893 141.089 187.733 140.428 187.414 139.854C187.095 139.27 186.612 138.814 185.965 138.486C185.318 138.149 184.497 137.98 183.504 137.98C182.565 137.98 181.79 138.122 181.18 138.404C180.569 138.687 180.113 139.07 179.812 139.553C179.521 140.036 179.375 140.587 179.375 141.207C179.375 141.626 179.462 142.009 179.635 142.355C179.817 142.693 180.095 143.007 180.469 143.299C180.852 143.59 181.335 143.859 181.918 144.105C182.51 144.352 183.217 144.589 184.037 144.816C185.167 145.135 186.143 145.491 186.963 145.883C187.783 146.275 188.458 146.717 188.986 147.209C189.524 147.692 189.921 148.243 190.176 148.863C190.44 149.474 190.572 150.167 190.572 150.941C190.572 151.753 190.408 152.486 190.08 153.143C189.752 153.799 189.283 154.359 188.672 154.824C188.061 155.289 187.327 155.649 186.471 155.904C185.623 156.15 184.675 156.273 183.627 156.273C182.706 156.273 181.799 156.146 180.906 155.891C180.022 155.635 179.215 155.253 178.486 154.742C177.766 154.232 177.188 153.603 176.75 152.855C176.322 152.099 176.107 151.224 176.107 150.23H178.732C178.732 150.914 178.865 151.502 179.129 151.994C179.393 152.477 179.753 152.878 180.209 153.197C180.674 153.516 181.198 153.753 181.781 153.908C182.374 154.054 182.989 154.127 183.627 154.127C184.548 154.127 185.327 153.999 185.965 153.744C186.603 153.489 187.086 153.124 187.414 152.65C187.751 152.176 187.92 151.616 187.92 150.969ZM196.301 141.207V156H193.758V141.207H196.301ZM193.566 137.283C193.566 136.873 193.689 136.527 193.936 136.244C194.191 135.962 194.564 135.82 195.057 135.82C195.54 135.82 195.909 135.962 196.164 136.244C196.428 136.527 196.561 136.873 196.561 137.283C196.561 137.675 196.428 138.012 196.164 138.295C195.909 138.568 195.54 138.705 195.057 138.705C194.564 138.705 194.191 138.568 193.936 138.295C193.689 138.012 193.566 137.675 193.566 137.283ZM202.877 144.146V156H200.334V141.207H202.74L202.877 144.146ZM202.357 148.043L201.182 148.002C201.191 146.99 201.323 146.056 201.578 145.199C201.833 144.333 202.212 143.581 202.713 142.943C203.214 142.305 203.839 141.813 204.586 141.467C205.333 141.111 206.199 140.934 207.184 140.934C207.876 140.934 208.514 141.034 209.098 141.234C209.681 141.426 210.187 141.731 210.615 142.15C211.044 142.57 211.376 143.107 211.613 143.764C211.85 144.42 211.969 145.213 211.969 146.143V156H209.439V146.266C209.439 145.491 209.307 144.871 209.043 144.406C208.788 143.941 208.423 143.604 207.949 143.395C207.475 143.176 206.919 143.066 206.281 143.066C205.534 143.066 204.91 143.199 204.408 143.463C203.907 143.727 203.506 144.092 203.205 144.557C202.904 145.021 202.686 145.555 202.549 146.156C202.421 146.749 202.357 147.378 202.357 148.043ZM211.941 146.648L210.246 147.168C210.255 146.357 210.387 145.577 210.643 144.83C210.907 144.083 211.285 143.417 211.777 142.834C212.279 142.251 212.894 141.79 213.623 141.453C214.352 141.107 215.186 140.934 216.125 140.934C216.918 140.934 217.62 141.038 218.23 141.248C218.85 141.458 219.37 141.781 219.789 142.219C220.217 142.647 220.541 143.199 220.76 143.873C220.979 144.548 221.088 145.35 221.088 146.279V156H218.545V146.252C218.545 145.423 218.413 144.78 218.148 144.324C217.893 143.859 217.529 143.536 217.055 143.354C216.59 143.162 216.034 143.066 215.387 143.066C214.831 143.066 214.339 143.162 213.91 143.354C213.482 143.545 213.122 143.809 212.83 144.146C212.538 144.475 212.315 144.853 212.16 145.281C212.014 145.71 211.941 146.165 211.941 146.648ZM227.445 144.051V161.688H224.902V141.207H227.227L227.445 144.051ZM237.412 148.48V148.768C237.412 149.843 237.285 150.841 237.029 151.762C236.774 152.673 236.4 153.466 235.908 154.141C235.425 154.815 234.828 155.339 234.117 155.713C233.406 156.087 232.59 156.273 231.67 156.273C230.731 156.273 229.902 156.118 229.182 155.809C228.462 155.499 227.851 155.048 227.35 154.455C226.848 153.863 226.447 153.152 226.146 152.322C225.855 151.493 225.654 150.559 225.545 149.52V147.988C225.654 146.895 225.859 145.915 226.16 145.049C226.461 144.183 226.857 143.445 227.35 142.834C227.851 142.214 228.457 141.745 229.168 141.426C229.879 141.098 230.699 140.934 231.629 140.934C232.559 140.934 233.383 141.116 234.104 141.48C234.824 141.836 235.43 142.346 235.922 143.012C236.414 143.677 236.783 144.475 237.029 145.404C237.285 146.325 237.412 147.35 237.412 148.48ZM234.869 148.768V148.48C234.869 147.742 234.792 147.049 234.637 146.402C234.482 145.746 234.24 145.172 233.912 144.68C233.593 144.178 233.183 143.786 232.682 143.504C232.18 143.212 231.583 143.066 230.891 143.066C230.253 143.066 229.697 143.176 229.223 143.395C228.758 143.613 228.361 143.91 228.033 144.283C227.705 144.648 227.436 145.067 227.227 145.541C227.026 146.006 226.876 146.489 226.775 146.99V150.531C226.958 151.169 227.213 151.771 227.541 152.336C227.869 152.892 228.307 153.343 228.854 153.689C229.4 154.027 230.089 154.195 230.918 154.195C231.602 154.195 232.189 154.054 232.682 153.771C233.183 153.48 233.593 153.083 233.912 152.582C234.24 152.081 234.482 151.507 234.637 150.859C234.792 150.203 234.869 149.506 234.869 148.768ZM243.387 135V156H240.844V135H243.387ZM253.586 156.273C252.556 156.273 251.622 156.1 250.783 155.754C249.954 155.398 249.238 154.902 248.637 154.264C248.044 153.626 247.589 152.869 247.27 151.994C246.951 151.119 246.791 150.162 246.791 149.123V148.549C246.791 147.346 246.969 146.275 247.324 145.336C247.68 144.388 248.163 143.586 248.773 142.93C249.384 142.273 250.077 141.777 250.852 141.439C251.626 141.102 252.428 140.934 253.258 140.934C254.315 140.934 255.227 141.116 255.992 141.48C256.767 141.845 257.4 142.355 257.893 143.012C258.385 143.659 258.749 144.424 258.986 145.309C259.223 146.184 259.342 147.141 259.342 148.18V149.314H248.295V147.25H256.812V147.059C256.776 146.402 256.639 145.764 256.402 145.145C256.174 144.525 255.81 144.014 255.309 143.613C254.807 143.212 254.124 143.012 253.258 143.012C252.684 143.012 252.155 143.135 251.672 143.381C251.189 143.618 250.774 143.973 250.428 144.447C250.081 144.921 249.812 145.5 249.621 146.184C249.43 146.867 249.334 147.656 249.334 148.549V149.123C249.334 149.825 249.43 150.486 249.621 151.105C249.822 151.716 250.109 152.254 250.482 152.719C250.865 153.184 251.326 153.548 251.863 153.812C252.41 154.077 253.03 154.209 253.723 154.209C254.616 154.209 255.372 154.027 255.992 153.662C256.612 153.298 257.154 152.81 257.619 152.199L259.15 153.416C258.831 153.899 258.426 154.359 257.934 154.797C257.441 155.234 256.835 155.59 256.115 155.863C255.404 156.137 254.561 156.273 253.586 156.273ZM264.592 152.992V155.029C264.592 155.859 264.382 156.734 263.963 157.654C263.544 158.584 262.956 159.359 262.199 159.979L260.764 158.98C261.055 158.579 261.301 158.169 261.502 157.75C261.702 157.34 261.853 156.911 261.953 156.465C262.062 156.027 262.117 155.562 262.117 155.07V152.992H264.592ZM280.902 156.273C279.872 156.273 278.938 156.1 278.1 155.754C277.27 155.398 276.555 154.902 275.953 154.264C275.361 153.626 274.905 152.869 274.586 151.994C274.267 151.119 274.107 150.162 274.107 149.123V148.549C274.107 147.346 274.285 146.275 274.641 145.336C274.996 144.388 275.479 143.586 276.09 142.93C276.701 142.273 277.393 141.777 278.168 141.439C278.943 141.102 279.745 140.934 280.574 140.934C281.632 140.934 282.543 141.116 283.309 141.48C284.083 141.845 284.717 142.355 285.209 143.012C285.701 143.659 286.066 144.424 286.303 145.309C286.54 146.184 286.658 147.141 286.658 148.18V149.314H275.611V147.25H284.129V147.059C284.092 146.402 283.956 145.764 283.719 145.145C283.491 144.525 283.126 144.014 282.625 143.613C282.124 143.212 281.44 143.012 280.574 143.012C280 143.012 279.471 143.135 278.988 143.381C278.505 143.618 278.09 143.973 277.744 144.447C277.398 144.921 277.129 145.5 276.938 146.184C276.746 146.867 276.65 147.656 276.65 148.549V149.123C276.65 149.825 276.746 150.486 276.938 151.105C277.138 151.716 277.425 152.254 277.799 152.719C278.182 153.184 278.642 153.548 279.18 153.812C279.727 154.077 280.346 154.209 281.039 154.209C281.932 154.209 282.689 154.027 283.309 153.662C283.928 153.298 284.471 152.81 284.936 152.199L286.467 153.416C286.148 153.899 285.742 154.359 285.25 154.797C284.758 155.234 284.152 155.59 283.432 155.863C282.721 156.137 281.878 156.273 280.902 156.273ZM298.334 153.471V145.855C298.334 145.272 298.215 144.766 297.979 144.338C297.751 143.9 297.404 143.563 296.939 143.326C296.475 143.089 295.9 142.971 295.217 142.971C294.579 142.971 294.018 143.08 293.535 143.299C293.061 143.518 292.688 143.805 292.414 144.16C292.15 144.516 292.018 144.898 292.018 145.309H289.488C289.488 144.78 289.625 144.256 289.898 143.736C290.172 143.217 290.564 142.747 291.074 142.328C291.594 141.9 292.214 141.562 292.934 141.316C293.663 141.061 294.474 140.934 295.367 140.934C296.443 140.934 297.391 141.116 298.211 141.48C299.04 141.845 299.688 142.396 300.152 143.135C300.626 143.864 300.863 144.78 300.863 145.883V152.773C300.863 153.266 300.904 153.79 300.986 154.346C301.077 154.902 301.21 155.38 301.383 155.781V156H298.744C298.617 155.708 298.516 155.321 298.443 154.838C298.37 154.346 298.334 153.89 298.334 153.471ZM298.771 147.031L298.799 148.809H296.242C295.522 148.809 294.88 148.868 294.314 148.986C293.749 149.096 293.275 149.264 292.893 149.492C292.51 149.72 292.218 150.007 292.018 150.354C291.817 150.691 291.717 151.087 291.717 151.543C291.717 152.008 291.822 152.432 292.031 152.814C292.241 153.197 292.555 153.503 292.975 153.73C293.403 153.949 293.927 154.059 294.547 154.059C295.322 154.059 296.005 153.895 296.598 153.566C297.19 153.238 297.66 152.837 298.006 152.363C298.361 151.889 298.553 151.429 298.58 150.982L299.66 152.199C299.596 152.582 299.423 153.006 299.141 153.471C298.858 153.936 298.48 154.382 298.006 154.811C297.541 155.23 296.985 155.581 296.338 155.863C295.7 156.137 294.98 156.273 294.178 156.273C293.175 156.273 292.296 156.077 291.539 155.686C290.792 155.294 290.208 154.77 289.789 154.113C289.379 153.448 289.174 152.705 289.174 151.885C289.174 151.092 289.329 150.395 289.639 149.793C289.949 149.182 290.395 148.676 290.979 148.275C291.562 147.865 292.264 147.555 293.084 147.346C293.904 147.136 294.82 147.031 295.832 147.031H298.771ZM313.455 152.076C313.455 151.712 313.373 151.374 313.209 151.064C313.054 150.745 312.73 150.458 312.238 150.203C311.755 149.939 311.026 149.711 310.051 149.52C309.23 149.346 308.488 149.141 307.822 148.904C307.166 148.667 306.605 148.38 306.141 148.043C305.685 147.706 305.334 147.309 305.088 146.854C304.842 146.398 304.719 145.865 304.719 145.254C304.719 144.671 304.846 144.119 305.102 143.6C305.366 143.08 305.735 142.62 306.209 142.219C306.692 141.818 307.271 141.503 307.945 141.275C308.62 141.048 309.372 140.934 310.201 140.934C311.386 140.934 312.398 141.143 313.236 141.562C314.075 141.982 314.717 142.542 315.164 143.244C315.611 143.937 315.834 144.707 315.834 145.555H313.305C313.305 145.145 313.182 144.748 312.936 144.365C312.699 143.973 312.348 143.65 311.883 143.395C311.427 143.139 310.867 143.012 310.201 143.012C309.499 143.012 308.93 143.121 308.492 143.34C308.064 143.549 307.749 143.818 307.549 144.146C307.357 144.475 307.262 144.821 307.262 145.186C307.262 145.459 307.307 145.705 307.398 145.924C307.499 146.133 307.672 146.329 307.918 146.512C308.164 146.685 308.51 146.849 308.957 147.004C309.404 147.159 309.973 147.314 310.666 147.469C311.878 147.742 312.876 148.07 313.66 148.453C314.444 148.836 315.027 149.305 315.41 149.861C315.793 150.417 315.984 151.092 315.984 151.885C315.984 152.532 315.848 153.124 315.574 153.662C315.31 154.2 314.923 154.665 314.412 155.057C313.911 155.439 313.309 155.74 312.607 155.959C311.915 156.169 311.135 156.273 310.27 156.273C308.966 156.273 307.863 156.041 306.961 155.576C306.059 155.111 305.375 154.51 304.91 153.771C304.445 153.033 304.213 152.254 304.213 151.434H306.756C306.792 152.126 306.993 152.678 307.357 153.088C307.722 153.489 308.169 153.776 308.697 153.949C309.226 154.113 309.75 154.195 310.27 154.195C310.962 154.195 311.541 154.104 312.006 153.922C312.48 153.74 312.84 153.489 313.086 153.17C313.332 152.851 313.455 152.486 313.455 152.076ZM323.463 154.469L327.578 141.207H330.285L324.352 158.283C324.215 158.648 324.033 159.04 323.805 159.459C323.586 159.887 323.303 160.293 322.957 160.676C322.611 161.059 322.191 161.368 321.699 161.605C321.216 161.852 320.637 161.975 319.963 161.975C319.762 161.975 319.507 161.947 319.197 161.893C318.887 161.838 318.669 161.792 318.541 161.756L318.527 159.705C318.6 159.714 318.714 159.723 318.869 159.732C319.033 159.751 319.147 159.76 319.211 159.76C319.785 159.76 320.273 159.682 320.674 159.527C321.075 159.382 321.412 159.131 321.686 158.775C321.968 158.429 322.21 157.951 322.41 157.34L323.463 154.469ZM320.441 141.207L324.283 152.691L324.939 155.357L323.121 156.287L317.68 141.207H320.441ZM345.707 141.207V143.148H337.709V141.207H345.707ZM340.416 137.611H342.945V152.336C342.945 152.837 343.023 153.215 343.178 153.471C343.333 153.726 343.533 153.895 343.779 153.977C344.025 154.059 344.29 154.1 344.572 154.1C344.782 154.1 345.001 154.081 345.229 154.045C345.465 153.999 345.643 153.963 345.762 153.936L345.775 156C345.575 156.064 345.311 156.123 344.982 156.178C344.663 156.242 344.276 156.273 343.82 156.273C343.201 156.273 342.631 156.15 342.111 155.904C341.592 155.658 341.177 155.248 340.867 154.674C340.566 154.09 340.416 153.307 340.416 152.322V137.611ZM347.73 148.768V148.453C347.73 147.387 347.885 146.398 348.195 145.486C348.505 144.566 348.952 143.768 349.535 143.094C350.118 142.41 350.825 141.882 351.654 141.508C352.484 141.125 353.413 140.934 354.443 140.934C355.482 140.934 356.417 141.125 357.246 141.508C358.085 141.882 358.796 142.41 359.379 143.094C359.971 143.768 360.423 144.566 360.732 145.486C361.042 146.398 361.197 147.387 361.197 148.453V148.768C361.197 149.834 361.042 150.823 360.732 151.734C360.423 152.646 359.971 153.443 359.379 154.127C358.796 154.801 358.089 155.33 357.26 155.713C356.439 156.087 355.51 156.273 354.471 156.273C353.432 156.273 352.497 156.087 351.668 155.713C350.839 155.33 350.128 154.801 349.535 154.127C348.952 153.443 348.505 152.646 348.195 151.734C347.885 150.823 347.73 149.834 347.73 148.768ZM350.26 148.453V148.768C350.26 149.506 350.346 150.203 350.52 150.859C350.693 151.507 350.952 152.081 351.299 152.582C351.654 153.083 352.096 153.48 352.625 153.771C353.154 154.054 353.769 154.195 354.471 154.195C355.163 154.195 355.77 154.054 356.289 153.771C356.818 153.48 357.255 153.083 357.602 152.582C357.948 152.081 358.208 151.507 358.381 150.859C358.563 150.203 358.654 149.506 358.654 148.768V148.453C358.654 147.724 358.563 147.036 358.381 146.389C358.208 145.732 357.943 145.154 357.588 144.652C357.242 144.142 356.804 143.741 356.275 143.449C355.756 143.158 355.145 143.012 354.443 143.012C353.751 143.012 353.14 143.158 352.611 143.449C352.092 143.741 351.654 144.142 351.299 144.652C350.952 145.154 350.693 145.732 350.52 146.389C350.346 147.036 350.26 147.724 350.26 148.453ZM380.365 152.582V141.207H382.908V156H380.488L380.365 152.582ZM380.844 149.465L381.896 149.438C381.896 150.422 381.792 151.333 381.582 152.172C381.382 153.001 381.053 153.721 380.598 154.332C380.142 154.943 379.545 155.421 378.807 155.768C378.068 156.105 377.171 156.273 376.113 156.273C375.393 156.273 374.732 156.169 374.131 155.959C373.538 155.749 373.028 155.426 372.6 154.988C372.171 154.551 371.839 153.981 371.602 153.279C371.374 152.577 371.26 151.734 371.26 150.75V141.207H373.789V150.777C373.789 151.443 373.862 151.994 374.008 152.432C374.163 152.86 374.368 153.202 374.623 153.457C374.887 153.703 375.179 153.876 375.498 153.977C375.826 154.077 376.163 154.127 376.51 154.127C377.585 154.127 378.438 153.922 379.066 153.512C379.695 153.092 380.146 152.532 380.42 151.83C380.702 151.119 380.844 150.331 380.844 149.465ZM395.377 152.076C395.377 151.712 395.295 151.374 395.131 151.064C394.976 150.745 394.652 150.458 394.16 150.203C393.677 149.939 392.948 149.711 391.973 149.52C391.152 149.346 390.41 149.141 389.744 148.904C389.088 148.667 388.527 148.38 388.062 148.043C387.607 147.706 387.256 147.309 387.01 146.854C386.764 146.398 386.641 145.865 386.641 145.254C386.641 144.671 386.768 144.119 387.023 143.6C387.288 143.08 387.657 142.62 388.131 142.219C388.614 141.818 389.193 141.503 389.867 141.275C390.542 141.048 391.294 140.934 392.123 140.934C393.308 140.934 394.32 141.143 395.158 141.562C395.997 141.982 396.639 142.542 397.086 143.244C397.533 143.937 397.756 144.707 397.756 145.555H395.227C395.227 145.145 395.104 144.748 394.857 144.365C394.62 143.973 394.27 143.65 393.805 143.395C393.349 143.139 392.788 143.012 392.123 143.012C391.421 143.012 390.852 143.121 390.414 143.34C389.986 143.549 389.671 143.818 389.471 144.146C389.279 144.475 389.184 144.821 389.184 145.186C389.184 145.459 389.229 145.705 389.32 145.924C389.421 146.133 389.594 146.329 389.84 146.512C390.086 146.685 390.432 146.849 390.879 147.004C391.326 147.159 391.895 147.314 392.588 147.469C393.8 147.742 394.798 148.07 395.582 148.453C396.366 148.836 396.949 149.305 397.332 149.861C397.715 150.417 397.906 151.092 397.906 151.885C397.906 152.532 397.77 153.124 397.496 153.662C397.232 154.2 396.844 154.665 396.334 155.057C395.833 155.439 395.231 155.74 394.529 155.959C393.837 156.169 393.057 156.273 392.191 156.273C390.888 156.273 389.785 156.041 388.883 155.576C387.98 155.111 387.297 154.51 386.832 153.771C386.367 153.033 386.135 152.254 386.135 151.434H388.678C388.714 152.126 388.915 152.678 389.279 153.088C389.644 153.489 390.09 153.776 390.619 153.949C391.148 154.113 391.672 154.195 392.191 154.195C392.884 154.195 393.463 154.104 393.928 153.922C394.402 153.74 394.762 153.489 395.008 153.17C395.254 152.851 395.377 152.486 395.377 152.076ZM407.367 156.273C406.337 156.273 405.403 156.1 404.564 155.754C403.735 155.398 403.02 154.902 402.418 154.264C401.826 153.626 401.37 152.869 401.051 151.994C400.732 151.119 400.572 150.162 400.572 149.123V148.549C400.572 147.346 400.75 146.275 401.105 145.336C401.461 144.388 401.944 143.586 402.555 142.93C403.165 142.273 403.858 141.777 404.633 141.439C405.408 141.102 406.21 140.934 407.039 140.934C408.096 140.934 409.008 141.116 409.773 141.48C410.548 141.845 411.182 142.355 411.674 143.012C412.166 143.659 412.531 144.424 412.768 145.309C413.005 146.184 413.123 147.141 413.123 148.18V149.314H402.076V147.25H410.594V147.059C410.557 146.402 410.421 145.764 410.184 145.145C409.956 144.525 409.591 144.014 409.09 143.613C408.589 143.212 407.905 143.012 407.039 143.012C406.465 143.012 405.936 143.135 405.453 143.381C404.97 143.618 404.555 143.973 404.209 144.447C403.863 144.921 403.594 145.5 403.402 146.184C403.211 146.867 403.115 147.656 403.115 148.549V149.123C403.115 149.825 403.211 150.486 403.402 151.105C403.603 151.716 403.89 152.254 404.264 152.719C404.646 153.184 405.107 153.548 405.645 153.812C406.191 154.077 406.811 154.209 407.504 154.209C408.397 154.209 409.154 154.027 409.773 153.662C410.393 153.298 410.936 152.81 411.4 152.199L412.932 153.416C412.613 153.899 412.207 154.359 411.715 154.797C411.223 155.234 410.617 155.59 409.896 155.863C409.186 156.137 408.342 156.273 407.367 156.273ZM418.373 152.992V155.029C418.373 155.859 418.163 156.734 417.744 157.654C417.325 158.584 416.737 159.359 415.98 159.979L414.545 158.98C414.837 158.579 415.083 158.169 415.283 157.75C415.484 157.34 415.634 156.911 415.734 156.465C415.844 156.027 415.898 155.562 415.898 155.07V152.992H418.373ZM431.074 144.051V161.688H428.531V141.207H430.855L431.074 144.051ZM441.041 148.48V148.768C441.041 149.843 440.913 150.841 440.658 151.762C440.403 152.673 440.029 153.466 439.537 154.141C439.054 154.815 438.457 155.339 437.746 155.713C437.035 156.087 436.219 156.273 435.299 156.273C434.36 156.273 433.531 156.118 432.811 155.809C432.09 155.499 431.48 155.048 430.979 154.455C430.477 153.863 430.076 153.152 429.775 152.322C429.484 151.493 429.283 150.559 429.174 149.52V147.988C429.283 146.895 429.488 145.915 429.789 145.049C430.09 144.183 430.486 143.445 430.979 142.834C431.48 142.214 432.086 141.745 432.797 141.426C433.508 141.098 434.328 140.934 435.258 140.934C436.188 140.934 437.012 141.116 437.732 141.48C438.452 141.836 439.059 142.346 439.551 143.012C440.043 143.677 440.412 144.475 440.658 145.404C440.913 146.325 441.041 147.35 441.041 148.48ZM438.498 148.768V148.48C438.498 147.742 438.421 147.049 438.266 146.402C438.111 145.746 437.869 145.172 437.541 144.68C437.222 144.178 436.812 143.786 436.311 143.504C435.809 143.212 435.212 143.066 434.52 143.066C433.882 143.066 433.326 143.176 432.852 143.395C432.387 143.613 431.99 143.91 431.662 144.283C431.334 144.648 431.065 145.067 430.855 145.541C430.655 146.006 430.505 146.489 430.404 146.99V150.531C430.587 151.169 430.842 151.771 431.17 152.336C431.498 152.892 431.936 153.343 432.482 153.689C433.029 154.027 433.717 154.195 434.547 154.195C435.23 154.195 435.818 154.054 436.311 153.771C436.812 153.48 437.222 153.083 437.541 152.582C437.869 152.081 438.111 151.507 438.266 150.859C438.421 150.203 438.498 149.506 438.498 148.768ZM443.598 148.768V148.453C443.598 147.387 443.753 146.398 444.062 145.486C444.372 144.566 444.819 143.768 445.402 143.094C445.986 142.41 446.692 141.882 447.521 141.508C448.351 141.125 449.281 140.934 450.311 140.934C451.35 140.934 452.284 141.125 453.113 141.508C453.952 141.882 454.663 142.41 455.246 143.094C455.839 143.768 456.29 144.566 456.6 145.486C456.91 146.398 457.064 147.387 457.064 148.453V148.768C457.064 149.834 456.91 150.823 456.6 151.734C456.29 152.646 455.839 153.443 455.246 154.127C454.663 154.801 453.956 155.33 453.127 155.713C452.307 156.087 451.377 156.273 450.338 156.273C449.299 156.273 448.365 156.087 447.535 155.713C446.706 155.33 445.995 154.801 445.402 154.127C444.819 153.443 444.372 152.646 444.062 151.734C443.753 150.823 443.598 149.834 443.598 148.768ZM446.127 148.453V148.768C446.127 149.506 446.214 150.203 446.387 150.859C446.56 151.507 446.82 152.081 447.166 152.582C447.521 153.083 447.964 153.48 448.492 153.771C449.021 154.054 449.636 154.195 450.338 154.195C451.031 154.195 451.637 154.054 452.156 153.771C452.685 153.48 453.122 153.083 453.469 152.582C453.815 152.081 454.075 151.507 454.248 150.859C454.43 150.203 454.521 149.506 454.521 148.768V148.453C454.521 147.724 454.43 147.036 454.248 146.389C454.075 145.732 453.811 145.154 453.455 144.652C453.109 144.142 452.671 143.741 452.143 143.449C451.623 143.158 451.012 143.012 450.311 143.012C449.618 143.012 449.007 143.158 448.479 143.449C447.959 143.741 447.521 144.142 447.166 144.652C446.82 145.154 446.56 145.732 446.387 146.389C446.214 147.036 446.127 147.724 446.127 148.453ZM463.982 153.375L467.783 141.207H469.451L469.123 143.627L465.254 156H463.627L463.982 153.375ZM461.426 141.207L464.666 153.512L464.898 156H463.189L458.896 141.207H461.426ZM473.088 153.416L476.178 141.207H478.693L474.4 156H472.705L473.088 153.416ZM469.82 141.207L473.539 153.17L473.963 156H472.35L468.371 143.6L468.043 141.207H469.82ZM487.43 156.273C486.4 156.273 485.465 156.1 484.627 155.754C483.798 155.398 483.082 154.902 482.48 154.264C481.888 153.626 481.432 152.869 481.113 151.994C480.794 151.119 480.635 150.162 480.635 149.123V148.549C480.635 147.346 480.812 146.275 481.168 145.336C481.523 144.388 482.007 143.586 482.617 142.93C483.228 142.273 483.921 141.777 484.695 141.439C485.47 141.102 486.272 140.934 487.102 140.934C488.159 140.934 489.07 141.116 489.836 141.48C490.611 141.845 491.244 142.355 491.736 143.012C492.229 143.659 492.593 144.424 492.83 145.309C493.067 146.184 493.186 147.141 493.186 148.18V149.314H482.139V147.25H490.656V147.059C490.62 146.402 490.483 145.764 490.246 145.145C490.018 144.525 489.654 144.014 489.152 143.613C488.651 143.212 487.967 143.012 487.102 143.012C486.527 143.012 485.999 143.135 485.516 143.381C485.033 143.618 484.618 143.973 484.271 144.447C483.925 144.921 483.656 145.5 483.465 146.184C483.273 146.867 483.178 147.656 483.178 148.549V149.123C483.178 149.825 483.273 150.486 483.465 151.105C483.665 151.716 483.952 152.254 484.326 152.719C484.709 153.184 485.169 153.548 485.707 153.812C486.254 154.077 486.874 154.209 487.566 154.209C488.46 154.209 489.216 154.027 489.836 153.662C490.456 153.298 490.998 152.81 491.463 152.199L492.994 153.416C492.675 153.899 492.27 154.359 491.777 154.797C491.285 155.234 490.679 155.59 489.959 155.863C489.248 156.137 488.405 156.273 487.43 156.273ZM498.668 143.531V156H496.139V141.207H498.6L498.668 143.531ZM503.289 141.125L503.275 143.477C503.066 143.431 502.865 143.404 502.674 143.395C502.492 143.376 502.282 143.367 502.045 143.367C501.462 143.367 500.947 143.458 500.5 143.641C500.053 143.823 499.675 144.078 499.365 144.406C499.055 144.734 498.809 145.126 498.627 145.582C498.454 146.029 498.34 146.521 498.285 147.059L497.574 147.469C497.574 146.576 497.661 145.737 497.834 144.953C498.016 144.169 498.294 143.477 498.668 142.875C499.042 142.264 499.516 141.79 500.09 141.453C500.673 141.107 501.366 140.934 502.168 140.934C502.35 140.934 502.56 140.956 502.797 141.002C503.034 141.038 503.198 141.079 503.289 141.125ZM509.619 156H507.09V139.648C507.09 138.582 507.281 137.684 507.664 136.955C508.056 136.217 508.617 135.661 509.346 135.287C510.075 134.904 510.941 134.713 511.943 134.713C512.235 134.713 512.527 134.731 512.818 134.768C513.119 134.804 513.411 134.859 513.693 134.932L513.557 136.996C513.365 136.951 513.146 136.919 512.9 136.9C512.663 136.882 512.426 136.873 512.189 136.873C511.652 136.873 511.187 136.982 510.795 137.201C510.412 137.411 510.12 137.721 509.92 138.131C509.719 138.541 509.619 139.047 509.619 139.648V156ZM512.764 141.207V143.148H504.752V141.207H512.764ZM524.631 152.582V141.207H527.174V156H524.754L524.631 152.582ZM525.109 149.465L526.162 149.438C526.162 150.422 526.057 151.333 525.848 152.172C525.647 153.001 525.319 153.721 524.863 154.332C524.408 154.943 523.811 155.421 523.072 155.768C522.334 156.105 521.436 156.273 520.379 156.273C519.659 156.273 518.998 156.169 518.396 155.959C517.804 155.749 517.294 155.426 516.865 154.988C516.437 154.551 516.104 153.981 515.867 153.279C515.639 152.577 515.525 151.734 515.525 150.75V141.207H518.055V150.777C518.055 151.443 518.128 151.994 518.273 152.432C518.428 152.86 518.633 153.202 518.889 153.457C519.153 153.703 519.445 153.876 519.764 153.977C520.092 154.077 520.429 154.127 520.775 154.127C521.851 154.127 522.703 153.922 523.332 153.512C523.961 153.092 524.412 152.532 524.686 151.83C524.968 151.119 525.109 150.331 525.109 149.465ZM533.777 135V156H531.234V135H533.777ZM548.557 156H546.027V139.648C546.027 138.582 546.219 137.684 546.602 136.955C546.993 136.217 547.554 135.661 548.283 135.287C549.012 134.904 549.878 134.713 550.881 134.713C551.173 134.713 551.464 134.731 551.756 134.768C552.057 134.804 552.348 134.859 552.631 134.932L552.494 136.996C552.303 136.951 552.084 136.919 551.838 136.9C551.601 136.882 551.364 136.873 551.127 136.873C550.589 136.873 550.124 136.982 549.732 137.201C549.35 137.411 549.058 137.721 548.857 138.131C548.657 138.541 548.557 139.047 548.557 139.648V156ZM551.701 141.207V143.148H543.689V141.207H551.701ZM553.848 148.768V148.453C553.848 147.387 554.003 146.398 554.312 145.486C554.622 144.566 555.069 143.768 555.652 143.094C556.236 142.41 556.942 141.882 557.771 141.508C558.601 141.125 559.531 140.934 560.561 140.934C561.6 140.934 562.534 141.125 563.363 141.508C564.202 141.882 564.913 142.41 565.496 143.094C566.089 143.768 566.54 144.566 566.85 145.486C567.16 146.398 567.314 147.387 567.314 148.453V148.768C567.314 149.834 567.16 150.823 566.85 151.734C566.54 152.646 566.089 153.443 565.496 154.127C564.913 154.801 564.206 155.33 563.377 155.713C562.557 156.087 561.627 156.273 560.588 156.273C559.549 156.273 558.615 156.087 557.785 155.713C556.956 155.33 556.245 154.801 555.652 154.127C555.069 153.443 554.622 152.646 554.312 151.734C554.003 150.823 553.848 149.834 553.848 148.768ZM556.377 148.453V148.768C556.377 149.506 556.464 150.203 556.637 150.859C556.81 151.507 557.07 152.081 557.416 152.582C557.771 153.083 558.214 153.48 558.742 153.771C559.271 154.054 559.886 154.195 560.588 154.195C561.281 154.195 561.887 154.054 562.406 153.771C562.935 153.48 563.372 153.083 563.719 152.582C564.065 152.081 564.325 151.507 564.498 150.859C564.68 150.203 564.771 149.506 564.771 148.768V148.453C564.771 147.724 564.68 147.036 564.498 146.389C564.325 145.732 564.061 145.154 563.705 144.652C563.359 144.142 562.921 143.741 562.393 143.449C561.873 143.158 561.262 143.012 560.561 143.012C559.868 143.012 559.257 143.158 558.729 143.449C558.209 143.741 557.771 144.142 557.416 144.652C557.07 145.154 556.81 145.732 556.637 146.389C556.464 147.036 556.377 147.724 556.377 148.453ZM573.016 143.531V156H570.486V141.207H572.947L573.016 143.531ZM577.637 141.125L577.623 143.477C577.413 143.431 577.213 143.404 577.021 143.395C576.839 143.376 576.63 143.367 576.393 143.367C575.809 143.367 575.294 143.458 574.848 143.641C574.401 143.823 574.023 144.078 573.713 144.406C573.403 144.734 573.157 145.126 572.975 145.582C572.801 146.029 572.688 146.521 572.633 147.059L571.922 147.469C571.922 146.576 572.008 145.737 572.182 144.953C572.364 144.169 572.642 143.477 573.016 142.875C573.389 142.264 573.863 141.79 574.438 141.453C575.021 141.107 575.714 140.934 576.516 140.934C576.698 140.934 576.908 140.956 577.145 141.002C577.382 141.038 577.546 141.079 577.637 141.125ZM582.49 144.146V156H579.947V141.207H582.354L582.49 144.146ZM581.971 148.043L580.795 148.002C580.804 146.99 580.936 146.056 581.191 145.199C581.447 144.333 581.825 143.581 582.326 142.943C582.827 142.305 583.452 141.813 584.199 141.467C584.947 141.111 585.812 140.934 586.797 140.934C587.49 140.934 588.128 141.034 588.711 141.234C589.294 141.426 589.8 141.731 590.229 142.15C590.657 142.57 590.99 143.107 591.227 143.764C591.464 144.42 591.582 145.213 591.582 146.143V156H589.053V146.266C589.053 145.491 588.921 144.871 588.656 144.406C588.401 143.941 588.036 143.604 587.562 143.395C587.089 143.176 586.533 143.066 585.895 143.066C585.147 143.066 584.523 143.199 584.021 143.463C583.52 143.727 583.119 144.092 582.818 144.557C582.518 145.021 582.299 145.555 582.162 146.156C582.035 146.749 581.971 147.378 581.971 148.043ZM591.555 146.648L589.859 147.168C589.868 146.357 590.001 145.577 590.256 144.83C590.52 144.083 590.898 143.417 591.391 142.834C591.892 142.251 592.507 141.79 593.236 141.453C593.965 141.107 594.799 140.934 595.738 140.934C596.531 140.934 597.233 141.038 597.844 141.248C598.464 141.458 598.983 141.781 599.402 142.219C599.831 142.647 600.154 143.199 600.373 143.873C600.592 144.548 600.701 145.35 600.701 146.279V156H598.158V146.252C598.158 145.423 598.026 144.78 597.762 144.324C597.507 143.859 597.142 143.536 596.668 143.354C596.203 143.162 595.647 143.066 595 143.066C594.444 143.066 593.952 143.162 593.523 143.354C593.095 143.545 592.735 143.809 592.443 144.146C592.152 144.475 591.928 144.853 591.773 145.281C591.628 145.71 591.555 146.165 591.555 146.648ZM620.088 152.076C620.088 151.712 620.006 151.374 619.842 151.064C619.687 150.745 619.363 150.458 618.871 150.203C618.388 149.939 617.659 149.711 616.684 149.52C615.863 149.346 615.12 149.141 614.455 148.904C613.799 148.667 613.238 148.38 612.773 148.043C612.318 147.706 611.967 147.309 611.721 146.854C611.475 146.398 611.352 145.865 611.352 145.254C611.352 144.671 611.479 144.119 611.734 143.6C611.999 143.08 612.368 142.62 612.842 142.219C613.325 141.818 613.904 141.503 614.578 141.275C615.253 141.048 616.005 140.934 616.834 140.934C618.019 140.934 619.031 141.143 619.869 141.562C620.708 141.982 621.35 142.542 621.797 143.244C622.243 143.937 622.467 144.707 622.467 145.555H619.938C619.938 145.145 619.814 144.748 619.568 144.365C619.331 143.973 618.98 143.65 618.516 143.395C618.06 143.139 617.499 143.012 616.834 143.012C616.132 143.012 615.562 143.121 615.125 143.34C614.697 143.549 614.382 143.818 614.182 144.146C613.99 144.475 613.895 144.821 613.895 145.186C613.895 145.459 613.94 145.705 614.031 145.924C614.132 146.133 614.305 146.329 614.551 146.512C614.797 146.685 615.143 146.849 615.59 147.004C616.036 147.159 616.606 147.314 617.299 147.469C618.511 147.742 619.509 148.07 620.293 148.453C621.077 148.836 621.66 149.305 622.043 149.861C622.426 150.417 622.617 151.092 622.617 151.885C622.617 152.532 622.48 153.124 622.207 153.662C621.943 154.2 621.555 154.665 621.045 155.057C620.544 155.439 619.942 155.74 619.24 155.959C618.548 156.169 617.768 156.273 616.902 156.273C615.599 156.273 614.496 156.041 613.594 155.576C612.691 155.111 612.008 154.51 611.543 153.771C611.078 153.033 610.846 152.254 610.846 151.434H613.389C613.425 152.126 613.626 152.678 613.99 153.088C614.355 153.489 614.801 153.776 615.33 153.949C615.859 154.113 616.383 154.195 616.902 154.195C617.595 154.195 618.174 154.104 618.639 153.922C619.113 153.74 619.473 153.489 619.719 153.17C619.965 152.851 620.088 152.486 620.088 152.076ZM632.133 141.207V143.148H624.135V141.207H632.133ZM626.842 137.611H629.371V152.336C629.371 152.837 629.449 153.215 629.604 153.471C629.758 153.726 629.959 153.895 630.205 153.977C630.451 154.059 630.715 154.1 630.998 154.1C631.208 154.1 631.426 154.081 631.654 154.045C631.891 153.999 632.069 153.963 632.188 153.936L632.201 156C632.001 156.064 631.736 156.123 631.408 156.178C631.089 156.242 630.702 156.273 630.246 156.273C629.626 156.273 629.057 156.15 628.537 155.904C628.018 155.658 627.603 155.248 627.293 154.674C626.992 154.09 626.842 153.307 626.842 152.322V137.611ZM643.822 153.471V145.855C643.822 145.272 643.704 144.766 643.467 144.338C643.239 143.9 642.893 143.563 642.428 143.326C641.963 143.089 641.389 142.971 640.705 142.971C640.067 142.971 639.507 143.08 639.023 143.299C638.549 143.518 638.176 143.805 637.902 144.16C637.638 144.516 637.506 144.898 637.506 145.309H634.977C634.977 144.78 635.113 144.256 635.387 143.736C635.66 143.217 636.052 142.747 636.562 142.328C637.082 141.9 637.702 141.562 638.422 141.316C639.151 141.061 639.962 140.934 640.855 140.934C641.931 140.934 642.879 141.116 643.699 141.48C644.529 141.845 645.176 142.396 645.641 143.135C646.115 143.864 646.352 144.78 646.352 145.883V152.773C646.352 153.266 646.393 153.79 646.475 154.346C646.566 154.902 646.698 155.38 646.871 155.781V156H644.232C644.105 155.708 644.005 155.321 643.932 154.838C643.859 154.346 643.822 153.89 643.822 153.471ZM644.26 147.031L644.287 148.809H641.73C641.01 148.809 640.368 148.868 639.803 148.986C639.238 149.096 638.764 149.264 638.381 149.492C637.998 149.72 637.706 150.007 637.506 150.354C637.305 150.691 637.205 151.087 637.205 151.543C637.205 152.008 637.31 152.432 637.52 152.814C637.729 153.197 638.044 153.503 638.463 153.73C638.891 153.949 639.415 154.059 640.035 154.059C640.81 154.059 641.493 153.895 642.086 153.566C642.678 153.238 643.148 152.837 643.494 152.363C643.85 151.889 644.041 151.429 644.068 150.982L645.148 152.199C645.085 152.582 644.911 153.006 644.629 153.471C644.346 153.936 643.968 154.382 643.494 154.811C643.029 155.23 642.473 155.581 641.826 155.863C641.188 156.137 640.468 156.273 639.666 156.273C638.663 156.273 637.784 156.077 637.027 155.686C636.28 155.294 635.697 154.77 635.277 154.113C634.867 153.448 634.662 152.705 634.662 151.885C634.662 151.092 634.817 150.395 635.127 149.793C635.437 149.182 635.883 148.676 636.467 148.275C637.05 147.865 637.752 147.555 638.572 147.346C639.393 147.136 640.309 147.031 641.32 147.031H644.26ZM656.523 141.207V143.148H648.525V141.207H656.523ZM651.232 137.611H653.762V152.336C653.762 152.837 653.839 153.215 653.994 153.471C654.149 153.726 654.35 153.895 654.596 153.977C654.842 154.059 655.106 154.1 655.389 154.1C655.598 154.1 655.817 154.081 656.045 154.045C656.282 153.999 656.46 153.963 656.578 153.936L656.592 156C656.391 156.064 656.127 156.123 655.799 156.178C655.48 156.242 655.092 156.273 654.637 156.273C654.017 156.273 653.447 156.15 652.928 155.904C652.408 155.658 651.993 155.248 651.684 154.674C651.383 154.09 651.232 153.307 651.232 152.322V137.611ZM665.629 156.273C664.599 156.273 663.665 156.1 662.826 155.754C661.997 155.398 661.281 154.902 660.68 154.264C660.087 153.626 659.632 152.869 659.312 151.994C658.993 151.119 658.834 150.162 658.834 149.123V148.549C658.834 147.346 659.012 146.275 659.367 145.336C659.723 144.388 660.206 143.586 660.816 142.93C661.427 142.273 662.12 141.777 662.895 141.439C663.669 141.102 664.471 140.934 665.301 140.934C666.358 140.934 667.27 141.116 668.035 141.48C668.81 141.845 669.443 142.355 669.936 143.012C670.428 143.659 670.792 144.424 671.029 145.309C671.266 146.184 671.385 147.141 671.385 148.18V149.314H660.338V147.25H668.855V147.059C668.819 146.402 668.682 145.764 668.445 145.145C668.217 144.525 667.853 144.014 667.352 143.613C666.85 143.212 666.167 143.012 665.301 143.012C664.727 143.012 664.198 143.135 663.715 143.381C663.232 143.618 662.817 143.973 662.471 144.447C662.124 144.921 661.855 145.5 661.664 146.184C661.473 146.867 661.377 147.656 661.377 148.549V149.123C661.377 149.825 661.473 150.486 661.664 151.105C661.865 151.716 662.152 152.254 662.525 152.719C662.908 153.184 663.368 153.548 663.906 153.812C664.453 154.077 665.073 154.209 665.766 154.209C666.659 154.209 667.415 154.027 668.035 153.662C668.655 153.298 669.197 152.81 669.662 152.199L671.193 153.416C670.874 153.899 670.469 154.359 669.977 154.797C669.484 155.234 668.878 155.59 668.158 155.863C667.447 156.137 666.604 156.273 665.629 156.273ZM683.799 144.146V156H681.256V141.207H683.662L683.799 144.146ZM683.279 148.043L682.104 148.002C682.113 146.99 682.245 146.056 682.5 145.199C682.755 144.333 683.133 143.581 683.635 142.943C684.136 142.305 684.76 141.813 685.508 141.467C686.255 141.111 687.121 140.934 688.105 140.934C688.798 140.934 689.436 141.034 690.02 141.234C690.603 141.426 691.109 141.731 691.537 142.15C691.965 142.57 692.298 143.107 692.535 143.764C692.772 144.42 692.891 145.213 692.891 146.143V156H690.361V146.266C690.361 145.491 690.229 144.871 689.965 144.406C689.71 143.941 689.345 143.604 688.871 143.395C688.397 143.176 687.841 143.066 687.203 143.066C686.456 143.066 685.831 143.199 685.33 143.463C684.829 143.727 684.428 144.092 684.127 144.557C683.826 145.021 683.607 145.555 683.471 146.156C683.343 146.749 683.279 147.378 683.279 148.043ZM692.863 146.648L691.168 147.168C691.177 146.357 691.309 145.577 691.564 144.83C691.829 144.083 692.207 143.417 692.699 142.834C693.201 142.251 693.816 141.79 694.545 141.453C695.274 141.107 696.108 140.934 697.047 140.934C697.84 140.934 698.542 141.038 699.152 141.248C699.772 141.458 700.292 141.781 700.711 142.219C701.139 142.647 701.463 143.199 701.682 143.873C701.9 144.548 702.01 145.35 702.01 146.279V156H699.467V146.252C699.467 145.423 699.335 144.78 699.07 144.324C698.815 143.859 698.451 143.536 697.977 143.354C697.512 143.162 696.956 143.066 696.309 143.066C695.753 143.066 695.26 143.162 694.832 143.354C694.404 143.545 694.044 143.809 693.752 144.146C693.46 144.475 693.237 144.853 693.082 145.281C692.936 145.71 692.863 146.165 692.863 146.648ZM714.561 153.471V145.855C714.561 145.272 714.442 144.766 714.205 144.338C713.977 143.9 713.631 143.563 713.166 143.326C712.701 143.089 712.127 142.971 711.443 142.971C710.805 142.971 710.245 143.08 709.762 143.299C709.288 143.518 708.914 143.805 708.641 144.16C708.376 144.516 708.244 144.898 708.244 145.309H705.715C705.715 144.78 705.852 144.256 706.125 143.736C706.398 143.217 706.79 142.747 707.301 142.328C707.82 141.9 708.44 141.562 709.16 141.316C709.889 141.061 710.701 140.934 711.594 140.934C712.669 140.934 713.617 141.116 714.438 141.48C715.267 141.845 715.914 142.396 716.379 143.135C716.853 143.864 717.09 144.78 717.09 145.883V152.773C717.09 153.266 717.131 153.79 717.213 154.346C717.304 154.902 717.436 155.38 717.609 155.781V156H714.971C714.843 155.708 714.743 155.321 714.67 154.838C714.597 154.346 714.561 153.89 714.561 153.471ZM714.998 147.031L715.025 148.809H712.469C711.749 148.809 711.106 148.868 710.541 148.986C709.976 149.096 709.502 149.264 709.119 149.492C708.736 149.72 708.445 150.007 708.244 150.354C708.044 150.691 707.943 151.087 707.943 151.543C707.943 152.008 708.048 152.432 708.258 152.814C708.467 153.197 708.782 153.503 709.201 153.73C709.63 153.949 710.154 154.059 710.773 154.059C711.548 154.059 712.232 153.895 712.824 153.566C713.417 153.238 713.886 152.837 714.232 152.363C714.588 151.889 714.779 151.429 714.807 150.982L715.887 152.199C715.823 152.582 715.65 153.006 715.367 153.471C715.085 153.936 714.706 154.382 714.232 154.811C713.768 155.23 713.212 155.581 712.564 155.863C711.926 156.137 711.206 156.273 710.404 156.273C709.402 156.273 708.522 156.077 707.766 155.686C707.018 155.294 706.435 154.77 706.016 154.113C705.605 153.448 705.4 152.705 705.4 151.885C705.4 151.092 705.555 150.395 705.865 149.793C706.175 149.182 706.622 148.676 707.205 148.275C707.788 147.865 708.49 147.555 709.311 147.346C710.131 147.136 711.047 147.031 712.059 147.031H714.998ZM723.598 144.365V156H721.068V141.207H723.461L723.598 144.365ZM722.996 148.043L721.943 148.002C721.952 146.99 722.103 146.056 722.395 145.199C722.686 144.333 723.096 143.581 723.625 142.943C724.154 142.305 724.783 141.813 725.512 141.467C726.25 141.111 727.066 140.934 727.959 140.934C728.688 140.934 729.344 141.034 729.928 141.234C730.511 141.426 731.008 141.736 731.418 142.164C731.837 142.592 732.156 143.148 732.375 143.832C732.594 144.507 732.703 145.331 732.703 146.307V156H730.16V146.279C730.16 145.505 730.046 144.885 729.818 144.42C729.59 143.946 729.258 143.604 728.82 143.395C728.383 143.176 727.845 143.066 727.207 143.066C726.578 143.066 726.004 143.199 725.484 143.463C724.974 143.727 724.532 144.092 724.158 144.557C723.794 145.021 723.507 145.555 723.297 146.156C723.096 146.749 722.996 147.378 722.996 148.043ZM745.268 153.471V145.855C745.268 145.272 745.149 144.766 744.912 144.338C744.684 143.9 744.338 143.563 743.873 143.326C743.408 143.089 742.834 142.971 742.15 142.971C741.512 142.971 740.952 143.08 740.469 143.299C739.995 143.518 739.621 143.805 739.348 144.16C739.083 144.516 738.951 144.898 738.951 145.309H736.422C736.422 144.78 736.559 144.256 736.832 143.736C737.105 143.217 737.497 142.747 738.008 142.328C738.527 141.9 739.147 141.562 739.867 141.316C740.596 141.061 741.408 140.934 742.301 140.934C743.376 140.934 744.324 141.116 745.145 141.48C745.974 141.845 746.621 142.396 747.086 143.135C747.56 143.864 747.797 144.78 747.797 145.883V152.773C747.797 153.266 747.838 153.79 747.92 154.346C748.011 154.902 748.143 155.38 748.316 155.781V156H745.678C745.55 155.708 745.45 155.321 745.377 154.838C745.304 154.346 745.268 153.89 745.268 153.471ZM745.705 147.031L745.732 148.809H743.176C742.456 148.809 741.813 148.868 741.248 148.986C740.683 149.096 740.209 149.264 739.826 149.492C739.443 149.72 739.152 150.007 738.951 150.354C738.751 150.691 738.65 151.087 738.65 151.543C738.65 152.008 738.755 152.432 738.965 152.814C739.174 153.197 739.489 153.503 739.908 153.73C740.337 153.949 740.861 154.059 741.48 154.059C742.255 154.059 742.939 153.895 743.531 153.566C744.124 153.238 744.593 152.837 744.939 152.363C745.295 151.889 745.486 151.429 745.514 150.982L746.594 152.199C746.53 152.582 746.357 153.006 746.074 153.471C745.792 153.936 745.413 154.382 744.939 154.811C744.475 155.23 743.919 155.581 743.271 155.863C742.633 156.137 741.913 156.273 741.111 156.273C740.109 156.273 739.229 156.077 738.473 155.686C737.725 155.294 737.142 154.77 736.723 154.113C736.312 153.448 736.107 152.705 736.107 151.885C736.107 151.092 736.262 150.395 736.572 149.793C736.882 149.182 737.329 148.676 737.912 148.275C738.495 147.865 739.197 147.555 740.018 147.346C740.838 147.136 741.754 147.031 742.766 147.031H745.705ZM761.359 141.207H763.656V155.686C763.656 156.989 763.392 158.101 762.863 159.021C762.335 159.942 761.596 160.639 760.648 161.113C759.71 161.596 758.625 161.838 757.395 161.838C756.884 161.838 756.283 161.756 755.59 161.592C754.906 161.437 754.232 161.168 753.566 160.785C752.91 160.411 752.359 159.906 751.912 159.268L753.238 157.764C753.858 158.511 754.505 159.031 755.18 159.322C755.863 159.614 756.538 159.76 757.203 159.76C758.005 159.76 758.698 159.609 759.281 159.309C759.865 159.008 760.316 158.561 760.635 157.969C760.963 157.385 761.127 156.665 761.127 155.809V144.461L761.359 141.207ZM751.174 148.768V148.48C751.174 147.35 751.306 146.325 751.57 145.404C751.844 144.475 752.231 143.677 752.732 143.012C753.243 142.346 753.858 141.836 754.578 141.48C755.298 141.116 756.109 140.934 757.012 140.934C757.941 140.934 758.753 141.098 759.445 141.426C760.147 141.745 760.74 142.214 761.223 142.834C761.715 143.445 762.102 144.183 762.385 145.049C762.667 145.915 762.863 146.895 762.973 147.988V149.246C762.872 150.331 762.676 151.306 762.385 152.172C762.102 153.038 761.715 153.776 761.223 154.387C760.74 154.997 760.147 155.467 759.445 155.795C758.743 156.114 757.923 156.273 756.984 156.273C756.1 156.273 755.298 156.087 754.578 155.713C753.867 155.339 753.257 154.815 752.746 154.141C752.236 153.466 751.844 152.673 751.57 151.762C751.306 150.841 751.174 149.843 751.174 148.768ZM753.703 148.48V148.768C753.703 149.506 753.776 150.199 753.922 150.846C754.077 151.493 754.309 152.062 754.619 152.555C754.938 153.047 755.344 153.434 755.836 153.717C756.328 153.99 756.916 154.127 757.6 154.127C758.438 154.127 759.131 153.949 759.678 153.594C760.225 153.238 760.658 152.769 760.977 152.186C761.305 151.602 761.56 150.969 761.742 150.285V146.99C761.642 146.489 761.487 146.006 761.277 145.541C761.077 145.067 760.812 144.648 760.484 144.283C760.165 143.91 759.769 143.613 759.295 143.395C758.821 143.176 758.265 143.066 757.627 143.066C756.934 143.066 756.337 143.212 755.836 143.504C755.344 143.786 754.938 144.178 754.619 144.68C754.309 145.172 754.077 145.746 753.922 146.402C753.776 147.049 753.703 147.742 753.703 148.48ZM773.637 156.273C772.607 156.273 771.673 156.1 770.834 155.754C770.005 155.398 769.289 154.902 768.688 154.264C768.095 153.626 767.639 152.869 767.32 151.994C767.001 151.119 766.842 150.162 766.842 149.123V148.549C766.842 147.346 767.02 146.275 767.375 145.336C767.73 144.388 768.214 143.586 768.824 142.93C769.435 142.273 770.128 141.777 770.902 141.439C771.677 141.102 772.479 140.934 773.309 140.934C774.366 140.934 775.277 141.116 776.043 141.48C776.818 141.845 777.451 142.355 777.943 143.012C778.436 143.659 778.8 144.424 779.037 145.309C779.274 146.184 779.393 147.141 779.393 148.18V149.314H768.346V147.25H776.863V147.059C776.827 146.402 776.69 145.764 776.453 145.145C776.225 144.525 775.861 144.014 775.359 143.613C774.858 143.212 774.174 143.012 773.309 143.012C772.734 143.012 772.206 143.135 771.723 143.381C771.24 143.618 770.825 143.973 770.479 144.447C770.132 144.921 769.863 145.5 769.672 146.184C769.48 146.867 769.385 147.656 769.385 148.549V149.123C769.385 149.825 769.48 150.486 769.672 151.105C769.872 151.716 770.16 152.254 770.533 152.719C770.916 153.184 771.376 153.548 771.914 153.812C772.461 154.077 773.081 154.209 773.773 154.209C774.667 154.209 775.423 154.027 776.043 153.662C776.663 153.298 777.205 152.81 777.67 152.199L779.201 153.416C778.882 153.899 778.477 154.359 777.984 154.797C777.492 155.234 776.886 155.59 776.166 155.863C775.455 156.137 774.612 156.273 773.637 156.273ZM795.484 141.207V143.148H787.486V141.207H795.484ZM790.193 137.611H792.723V152.336C792.723 152.837 792.8 153.215 792.955 153.471C793.11 153.726 793.311 153.895 793.557 153.977C793.803 154.059 794.067 154.1 794.35 154.1C794.559 154.1 794.778 154.081 795.006 154.045C795.243 153.999 795.421 153.963 795.539 153.936L795.553 156C795.352 156.064 795.088 156.123 794.76 156.178C794.441 156.242 794.053 156.273 793.598 156.273C792.978 156.273 792.408 156.15 791.889 155.904C791.369 155.658 790.954 155.248 790.645 154.674C790.344 154.09 790.193 153.307 790.193 152.322V137.611ZM797.508 148.768V148.453C797.508 147.387 797.663 146.398 797.973 145.486C798.283 144.566 798.729 143.768 799.312 143.094C799.896 142.41 800.602 141.882 801.432 141.508C802.261 141.125 803.191 140.934 804.221 140.934C805.26 140.934 806.194 141.125 807.023 141.508C807.862 141.882 808.573 142.41 809.156 143.094C809.749 143.768 810.2 144.566 810.51 145.486C810.82 146.398 810.975 147.387 810.975 148.453V148.768C810.975 149.834 810.82 150.823 810.51 151.734C810.2 152.646 809.749 153.443 809.156 154.127C808.573 154.801 807.867 155.33 807.037 155.713C806.217 156.087 805.287 156.273 804.248 156.273C803.209 156.273 802.275 156.087 801.445 155.713C800.616 155.33 799.905 154.801 799.312 154.127C798.729 153.443 798.283 152.646 797.973 151.734C797.663 150.823 797.508 149.834 797.508 148.768ZM800.037 148.453V148.768C800.037 149.506 800.124 150.203 800.297 150.859C800.47 151.507 800.73 152.081 801.076 152.582C801.432 153.083 801.874 153.48 802.402 153.771C802.931 154.054 803.546 154.195 804.248 154.195C804.941 154.195 805.547 154.054 806.066 153.771C806.595 153.48 807.033 153.083 807.379 152.582C807.725 152.081 807.985 151.507 808.158 150.859C808.34 150.203 808.432 149.506 808.432 148.768V148.453C808.432 147.724 808.34 147.036 808.158 146.389C807.985 145.732 807.721 145.154 807.365 144.652C807.019 144.142 806.581 143.741 806.053 143.449C805.533 143.158 804.923 143.012 804.221 143.012C803.528 143.012 802.917 143.158 802.389 143.449C801.869 143.741 801.432 144.142 801.076 144.652C800.73 145.154 800.47 145.732 800.297 146.389C800.124 147.036 800.037 147.724 800.037 148.453ZM813.477 148.768V148.453C813.477 147.387 813.632 146.398 813.941 145.486C814.251 144.566 814.698 143.768 815.281 143.094C815.865 142.41 816.571 141.882 817.4 141.508C818.23 141.125 819.16 140.934 820.189 140.934C821.229 140.934 822.163 141.125 822.992 141.508C823.831 141.882 824.542 142.41 825.125 143.094C825.717 143.768 826.169 144.566 826.479 145.486C826.788 146.398 826.943 147.387 826.943 148.453V148.768C826.943 149.834 826.788 150.823 826.479 151.734C826.169 152.646 825.717 153.443 825.125 154.127C824.542 154.801 823.835 155.33 823.006 155.713C822.186 156.087 821.256 156.273 820.217 156.273C819.178 156.273 818.243 156.087 817.414 155.713C816.585 155.33 815.874 154.801 815.281 154.127C814.698 153.443 814.251 152.646 813.941 151.734C813.632 150.823 813.477 149.834 813.477 148.768ZM816.006 148.453V148.768C816.006 149.506 816.092 150.203 816.266 150.859C816.439 151.507 816.699 152.081 817.045 152.582C817.4 153.083 817.842 153.48 818.371 153.771C818.9 154.054 819.515 154.195 820.217 154.195C820.91 154.195 821.516 154.054 822.035 153.771C822.564 153.48 823.001 153.083 823.348 152.582C823.694 152.081 823.954 151.507 824.127 150.859C824.309 150.203 824.4 149.506 824.4 148.768V148.453C824.4 147.724 824.309 147.036 824.127 146.389C823.954 145.732 823.689 145.154 823.334 144.652C822.988 144.142 822.55 143.741 822.021 143.449C821.502 143.158 820.891 143.012 820.189 143.012C819.497 143.012 818.886 143.158 818.357 143.449C817.838 143.741 817.4 144.142 817.045 144.652C816.699 145.154 816.439 145.732 816.266 146.389C816.092 147.036 816.006 147.724 816.006 148.453ZM832.863 135V156H830.32V135H832.863ZM845.537 152.076C845.537 151.712 845.455 151.374 845.291 151.064C845.136 150.745 844.812 150.458 844.32 150.203C843.837 149.939 843.108 149.711 842.133 149.52C841.312 149.346 840.57 149.141 839.904 148.904C839.248 148.667 838.688 148.38 838.223 148.043C837.767 147.706 837.416 147.309 837.17 146.854C836.924 146.398 836.801 145.865 836.801 145.254C836.801 144.671 836.928 144.119 837.184 143.6C837.448 143.08 837.817 142.62 838.291 142.219C838.774 141.818 839.353 141.503 840.027 141.275C840.702 141.048 841.454 140.934 842.283 140.934C843.468 140.934 844.48 141.143 845.318 141.562C846.157 141.982 846.799 142.542 847.246 143.244C847.693 143.937 847.916 144.707 847.916 145.555H845.387C845.387 145.145 845.264 144.748 845.018 144.365C844.781 143.973 844.43 143.65 843.965 143.395C843.509 143.139 842.949 143.012 842.283 143.012C841.581 143.012 841.012 143.121 840.574 143.34C840.146 143.549 839.831 143.818 839.631 144.146C839.439 144.475 839.344 144.821 839.344 145.186C839.344 145.459 839.389 145.705 839.48 145.924C839.581 146.133 839.754 146.329 840 146.512C840.246 146.685 840.592 146.849 841.039 147.004C841.486 147.159 842.055 147.314 842.748 147.469C843.96 147.742 844.958 148.07 845.742 148.453C846.526 148.836 847.109 149.305 847.492 149.861C847.875 150.417 848.066 151.092 848.066 151.885C848.066 152.532 847.93 153.124 847.656 153.662C847.392 154.2 847.005 154.665 846.494 155.057C845.993 155.439 845.391 155.74 844.689 155.959C843.997 156.169 843.217 156.273 842.352 156.273C841.048 156.273 839.945 156.041 839.043 155.576C838.141 155.111 837.457 154.51 836.992 153.771C836.527 153.033 836.295 152.254 836.295 151.434H838.838C838.874 152.126 839.075 152.678 839.439 153.088C839.804 153.489 840.251 153.776 840.779 153.949C841.308 154.113 841.832 154.195 842.352 154.195C843.044 154.195 843.623 154.104 844.088 153.922C844.562 153.74 844.922 153.489 845.168 153.17C845.414 152.851 845.537 152.486 845.537 152.076Z" fill="#171717"/>
<path d="M291.164 51.6094H305.903C308.839 51.6094 311.379 52.0488 313.523 52.9277C315.686 53.8066 317.347 55.1074 318.507 56.8301C319.667 58.5527 320.247 60.6797 320.247 63.2109C320.247 65.3203 319.904 67.1133 319.219 68.5898C318.533 70.0664 317.566 71.2881 316.318 72.2549C315.088 73.2217 313.646 74.0039 311.994 74.6016L309.199 76.1309H296.648L296.596 69.46H305.93C307.213 69.46 308.276 69.2314 309.12 68.7744C309.964 68.3174 310.597 67.6758 311.019 66.8496C311.458 66.0059 311.678 65.0215 311.678 63.8965C311.678 62.7363 311.458 61.7344 311.019 60.8906C310.579 60.0469 309.929 59.4053 309.067 58.9658C308.224 58.5088 307.169 58.2803 305.903 58.2803H299.76V90H291.164V51.6094ZM312.416 90L303.794 72.9404L312.864 72.9141L321.618 89.6045V90H312.416ZM339.1 90.5273C336.832 90.5273 334.802 90.167 333.009 89.4463C331.216 88.7256 329.695 87.7324 328.447 86.4668C327.217 85.1836 326.276 83.707 325.626 82.0371C324.976 80.3672 324.65 78.583 324.65 76.6846V75.6826C324.65 73.5557 324.949 71.5957 325.547 69.8027C326.145 68.0098 327.015 66.4541 328.157 65.1357C329.317 63.7998 330.741 62.7715 332.429 62.0508C334.116 61.3125 336.041 60.9434 338.203 60.9434C340.225 60.9434 342.026 61.2773 343.608 61.9453C345.19 62.5957 346.526 63.5361 347.616 64.7666C348.706 65.9795 349.532 67.4473 350.095 69.1699C350.675 70.875 350.965 72.791 350.965 74.918V78.293H327.973V72.9932H342.896V72.3604C342.896 71.3584 342.712 70.4795 342.343 69.7236C341.991 68.9678 341.464 68.3877 340.761 67.9834C340.075 67.5615 339.205 67.3506 338.15 67.3506C337.148 67.3506 336.313 67.5615 335.646 67.9834C334.978 68.4053 334.441 69.0029 334.037 69.7764C333.65 70.5322 333.369 71.4199 333.193 72.4395C333.018 73.4414 332.93 74.5225 332.93 75.6826V76.6846C332.93 77.792 333.079 78.8027 333.378 79.7168C333.677 80.6309 334.116 81.4131 334.696 82.0635C335.276 82.7139 335.979 83.2236 336.806 83.5928C337.632 83.9619 338.572 84.1465 339.627 84.1465C340.928 84.1465 342.167 83.9004 343.345 83.4082C344.522 82.8984 345.542 82.1074 346.403 81.0352L350.253 85.4385C349.673 86.2822 348.855 87.0996 347.801 87.8906C346.764 88.6641 345.516 89.2969 344.057 89.7891C342.598 90.2812 340.945 90.5273 339.1 90.5273ZM370.081 83.1973V70.9629C370.081 70.1016 369.949 69.3633 369.686 68.748C369.422 68.1328 369.009 67.6494 368.446 67.2979C367.884 66.9463 367.154 66.7705 366.258 66.7705C365.502 66.7705 364.843 66.9023 364.28 67.166C363.735 67.4297 363.313 67.8076 363.015 68.2998C362.733 68.792 362.593 69.3984 362.593 70.1191H354.366C354.366 68.8359 354.656 67.6406 355.236 66.5332C355.816 65.4258 356.643 64.4502 357.715 63.6064C358.805 62.7627 360.105 62.1123 361.617 61.6553C363.129 61.1807 364.825 60.9434 366.706 60.9434C368.938 60.9434 370.925 61.3213 372.665 62.0771C374.423 62.8154 375.812 63.9316 376.831 65.4258C377.851 66.9023 378.36 68.7656 378.36 71.0156V82.96C378.36 84.6826 378.457 86.0361 378.65 87.0205C378.861 87.9873 379.16 88.8311 379.547 89.5518V90H371.241C370.854 89.1738 370.564 88.1543 370.371 86.9414C370.178 85.7109 370.081 84.4629 370.081 83.1973ZM371.109 72.5977L371.162 77.1328H367.075C366.161 77.1328 365.37 77.2471 364.702 77.4756C364.052 77.7041 363.524 78.0205 363.12 78.4248C362.716 78.8115 362.417 79.2686 362.224 79.7959C362.048 80.3057 361.96 80.8682 361.96 81.4834C361.96 82.0635 362.101 82.5908 362.382 83.0654C362.663 83.5225 363.05 83.8828 363.542 84.1465C364.034 84.4102 364.605 84.542 365.256 84.542C366.328 84.542 367.242 84.3311 367.998 83.9092C368.771 83.4873 369.369 82.9775 369.791 82.3799C370.213 81.7646 370.424 81.1934 370.424 80.666L372.401 84.0938C372.085 84.7969 371.698 85.5264 371.241 86.2822C370.784 87.0205 370.204 87.7148 369.501 88.3652C368.798 88.998 367.945 89.5166 366.943 89.9209C365.959 90.3252 364.772 90.5273 363.384 90.5273C361.591 90.5273 359.965 90.167 358.506 89.4463C357.047 88.708 355.878 87.6973 354.999 86.4141C354.138 85.1309 353.707 83.6543 353.707 81.9844C353.707 80.4902 353.979 79.1631 354.524 78.0029C355.069 76.8428 355.887 75.8584 356.977 75.0498C358.084 74.2412 359.473 73.6348 361.143 73.2305C362.812 72.8086 364.764 72.5977 366.996 72.5977H371.109ZM395.684 84.1201C396.562 84.1201 397.327 83.9531 397.978 83.6191C398.628 83.2852 399.129 82.8193 399.48 82.2217C399.85 81.6064 400.034 80.8682 400.034 80.0068H407.786C407.786 82.0811 407.25 83.9092 406.178 85.4912C405.123 87.0732 403.699 88.3125 401.906 89.209C400.113 90.0879 398.092 90.5273 395.842 90.5273C393.627 90.5273 391.693 90.167 390.041 89.4463C388.389 88.708 387.009 87.6797 385.901 86.3613C384.794 85.043 383.959 83.5137 383.396 81.7734C382.852 80.0156 382.579 78.1172 382.579 76.0781V75.3926C382.579 73.3711 382.852 71.4814 383.396 69.7236C383.959 67.9658 384.794 66.4277 385.901 65.1094C387.009 63.791 388.38 62.7715 390.015 62.0508C391.667 61.3125 393.601 60.9434 395.815 60.9434C398.153 60.9434 400.219 61.3916 402.012 62.2881C403.822 63.1846 405.237 64.4766 406.257 66.1641C407.276 67.834 407.786 69.8467 407.786 72.2021H400.034C400.034 71.2881 399.867 70.4707 399.533 69.75C399.217 69.0117 398.725 68.4316 398.057 68.0098C397.406 67.5703 396.598 67.3506 395.631 67.3506C394.629 67.3506 393.803 67.5703 393.152 68.0098C392.52 68.4316 392.036 69.0205 391.702 69.7764C391.368 70.5322 391.14 71.3936 391.017 72.3604C390.894 73.3096 390.832 74.3203 390.832 75.3926V76.0781C390.832 77.168 390.894 78.2051 391.017 79.1895C391.14 80.1562 391.368 81.0088 391.702 81.7471C392.054 82.4854 392.546 83.0654 393.179 83.4873C393.812 83.9092 394.646 84.1201 395.684 84.1201ZM426.375 61.4707V67.2451H409.447V61.4707H426.375ZM413.323 54.4043H421.576V81.0615C421.576 81.8525 421.673 82.459 421.866 82.8809C422.06 83.3027 422.376 83.6016 422.815 83.7773C423.255 83.9355 423.817 84.0146 424.503 84.0146C424.995 84.0146 425.417 83.9971 425.769 83.9619C426.12 83.9268 426.445 83.8828 426.744 83.8301V89.7891C426.041 90.0176 425.294 90.1934 424.503 90.3164C423.712 90.457 422.851 90.5273 421.919 90.5273C420.144 90.5273 418.605 90.2373 417.305 89.6572C416.021 89.0771 415.037 88.1631 414.352 86.915C413.666 85.6494 413.323 84.0059 413.323 81.9844V54.4043ZM469.96 67.0605V73.7051H450.079V67.0605H469.96ZM452.795 51.6094V90H444.199V51.6094H452.795ZM475.893 51.6094V90H467.323V51.6094H475.893ZM496.96 83.1973V70.9629C496.96 70.1016 496.828 69.3633 496.564 68.748C496.301 68.1328 495.888 67.6494 495.325 67.2979C494.763 66.9463 494.033 66.7705 493.137 66.7705C492.381 66.7705 491.722 66.9023 491.159 67.166C490.614 67.4297 490.192 67.8076 489.894 68.2998C489.612 68.792 489.472 69.3984 489.472 70.1191H481.245C481.245 68.8359 481.535 67.6406 482.115 66.5332C482.695 65.4258 483.521 64.4502 484.594 63.6064C485.684 62.7627 486.984 62.1123 488.496 61.6553C490.008 61.1807 491.704 60.9434 493.585 60.9434C495.817 60.9434 497.804 61.3213 499.544 62.0771C501.302 62.8154 502.69 63.9316 503.71 65.4258C504.729 66.9023 505.239 68.7656 505.239 71.0156V82.96C505.239 84.6826 505.336 86.0361 505.529 87.0205C505.74 87.9873 506.039 88.8311 506.426 89.5518V90H498.12C497.733 89.1738 497.443 88.1543 497.25 86.9414C497.057 85.7109 496.96 84.4629 496.96 83.1973ZM497.988 72.5977L498.041 77.1328H493.954C493.04 77.1328 492.249 77.2471 491.581 77.4756C490.931 77.7041 490.403 78.0205 489.999 78.4248C489.595 78.8115 489.296 79.2686 489.103 79.7959C488.927 80.3057 488.839 80.8682 488.839 81.4834C488.839 82.0635 488.979 82.5908 489.261 83.0654C489.542 83.5225 489.929 83.8828 490.421 84.1465C490.913 84.4102 491.484 84.542 492.135 84.542C493.207 84.542 494.121 84.3311 494.877 83.9092C495.65 83.4873 496.248 82.9775 496.67 82.3799C497.092 81.7646 497.303 81.1934 497.303 80.666L499.28 84.0938C498.964 84.7969 498.577 85.5264 498.12 86.2822C497.663 87.0205 497.083 87.7148 496.38 88.3652C495.677 88.998 494.824 89.5166 493.822 89.9209C492.838 90.3252 491.651 90.5273 490.263 90.5273C488.47 90.5273 486.844 90.167 485.385 89.4463C483.926 88.708 482.757 87.6973 481.878 86.4141C481.017 85.1309 480.586 83.6543 480.586 81.9844C480.586 80.4902 480.858 79.1631 481.403 78.0029C481.948 76.8428 482.766 75.8584 483.855 75.0498C484.963 74.2412 486.352 73.6348 488.021 73.2305C489.691 72.8086 491.643 72.5977 493.875 72.5977H497.988ZM518.897 66.9551V100.969H510.671V61.4707H518.344L518.897 66.9551ZM536.695 75.4189V75.9727C536.695 78.0469 536.458 79.9717 535.983 81.7471C535.509 83.5049 534.797 85.043 533.848 86.3613C532.916 87.6797 531.765 88.708 530.394 89.4463C529.022 90.167 527.432 90.5273 525.621 90.5273C523.898 90.5273 522.404 90.167 521.139 89.4463C519.891 88.708 518.836 87.6885 517.975 86.3877C517.131 85.0693 516.445 83.5664 515.918 81.8789C515.408 80.1738 515.013 78.3545 514.731 76.4209V75.3398C515.013 73.2832 515.417 71.376 515.944 69.6182C516.472 67.8604 517.157 66.3398 518.001 65.0566C518.845 63.7559 519.891 62.7451 521.139 62.0244C522.387 61.3037 523.872 60.9434 525.595 60.9434C527.388 60.9434 528.979 61.2861 530.367 61.9717C531.756 62.6572 532.916 63.6416 533.848 64.9248C534.797 66.1904 535.509 67.7109 535.983 69.4863C536.458 71.2617 536.695 73.2393 536.695 75.4189ZM528.442 75.9727V75.4189C528.442 74.2588 528.354 73.1953 528.179 72.2285C528.003 71.2441 527.722 70.3916 527.335 69.6709C526.948 68.9326 526.438 68.3613 525.806 67.957C525.173 67.5527 524.399 67.3506 523.485 67.3506C522.501 67.3506 521.666 67.5088 520.98 67.8252C520.295 68.1416 519.741 68.6074 519.319 69.2227C518.897 69.8203 518.59 70.5586 518.396 71.4375C518.221 72.3164 518.124 73.3184 518.106 74.4434V77.3438C518.124 78.6621 518.309 79.8398 518.66 80.877C519.029 81.8965 519.601 82.6963 520.374 83.2764C521.165 83.8389 522.22 84.1201 523.538 84.1201C524.47 84.1201 525.243 83.918 525.858 83.5137C526.491 83.0918 526.992 82.5029 527.361 81.7471C527.748 80.9912 528.021 80.1211 528.179 79.1367C528.354 78.1523 528.442 77.0977 528.442 75.9727ZM549.325 66.9551V100.969H541.099V61.4707H548.771L549.325 66.9551ZM567.123 75.4189V75.9727C567.123 78.0469 566.886 79.9717 566.411 81.7471C565.937 83.5049 565.225 85.043 564.275 86.3613C563.344 87.6797 562.192 88.708 560.821 89.4463C559.45 90.167 557.859 90.5273 556.049 90.5273C554.326 90.5273 552.832 90.167 551.566 89.4463C550.318 88.708 549.264 87.6885 548.402 86.3877C547.559 85.0693 546.873 83.5664 546.346 81.8789C545.836 80.1738 545.44 78.3545 545.159 76.4209V75.3398C545.44 73.2832 545.845 71.376 546.372 69.6182C546.899 67.8604 547.585 66.3398 548.429 65.0566C549.272 63.7559 550.318 62.7451 551.566 62.0244C552.814 61.3037 554.3 60.9434 556.022 60.9434C557.815 60.9434 559.406 61.2861 560.795 61.9717C562.184 62.6572 563.344 63.6416 564.275 64.9248C565.225 66.1904 565.937 67.7109 566.411 69.4863C566.886 71.2617 567.123 73.2393 567.123 75.4189ZM558.87 75.9727V75.4189C558.87 74.2588 558.782 73.1953 558.606 72.2285C558.431 71.2441 558.149 70.3916 557.763 69.6709C557.376 68.9326 556.866 68.3613 556.233 67.957C555.601 67.5527 554.827 67.3506 553.913 67.3506C552.929 67.3506 552.094 67.5088 551.408 67.8252C550.723 68.1416 550.169 68.6074 549.747 69.2227C549.325 69.8203 549.018 70.5586 548.824 71.4375C548.648 72.3164 548.552 73.3184 548.534 74.4434V77.3438C548.552 78.6621 548.736 79.8398 549.088 80.877C549.457 81.8965 550.028 82.6963 550.802 83.2764C551.593 83.8389 552.647 84.1201 553.966 84.1201C554.897 84.1201 555.671 83.918 556.286 83.5137C556.919 83.0918 557.42 82.5029 557.789 81.7471C558.176 80.9912 558.448 80.1211 558.606 79.1367C558.782 78.1523 558.87 77.0977 558.87 75.9727ZM579.779 86.7041L587.241 61.4707H596.101L584.631 94.2715C584.385 94.9922 584.051 95.7656 583.629 96.5918C583.225 97.418 582.671 98.209 581.968 98.9648C581.282 99.7207 580.403 100.336 579.331 100.811C578.259 101.285 576.94 101.522 575.376 101.522C574.585 101.522 573.97 101.479 573.53 101.391C573.108 101.32 572.546 101.197 571.843 101.021L571.816 95.0361C572.045 95.0361 572.247 95.0361 572.423 95.0361C572.616 95.0537 572.81 95.0625 573.003 95.0625C573.987 95.0625 574.778 94.957 575.376 94.7461C575.991 94.5352 576.466 94.2188 576.8 93.7969C577.151 93.3926 577.433 92.874 577.644 92.2412L579.779 86.7041ZM577.274 61.4707L583.181 81.7734L584.183 90.501L578.619 90.791L568.415 61.4707H577.274ZM621.229 51.6094V90H612.633V51.6094H621.229ZM636.337 67.7988V74.4434H618.829V67.7988H636.337ZM638.024 51.6094V58.2803H618.829V51.6094H638.024ZM640.028 76.0254V75.4717C640.028 73.3799 640.327 71.4551 640.925 69.6973C641.522 67.9219 642.401 66.3838 643.562 65.083C644.722 63.7822 646.146 62.7715 647.833 62.0508C649.521 61.3125 651.454 60.9434 653.634 60.9434C655.849 60.9434 657.8 61.3125 659.487 62.0508C661.192 62.7715 662.625 63.7822 663.785 65.083C664.945 66.3838 665.824 67.9219 666.422 69.6973C667.02 71.4551 667.318 73.3799 667.318 75.4717V76.0254C667.318 78.0996 667.02 80.0244 666.422 81.7998C665.824 83.5576 664.945 85.0957 663.785 86.4141C662.625 87.7148 661.201 88.7256 659.514 89.4463C657.826 90.167 655.884 90.5273 653.687 90.5273C651.507 90.5273 649.564 90.167 647.859 89.4463C646.154 88.7256 644.722 87.7148 643.562 86.4141C642.401 85.0957 641.522 83.5576 640.925 81.7998C640.327 80.0244 640.028 78.0996 640.028 76.0254ZM648.281 75.4717V76.0254C648.281 77.1504 648.369 78.2051 648.545 79.1895C648.738 80.1738 649.046 81.0352 649.468 81.7734C649.89 82.5117 650.443 83.0918 651.129 83.5137C651.832 83.918 652.685 84.1201 653.687 84.1201C654.688 84.1201 655.532 83.918 656.218 83.5137C656.903 83.0918 657.457 82.5117 657.879 81.7734C658.301 81.0352 658.6 80.1738 658.775 79.1895C658.969 78.2051 659.065 77.1504 659.065 76.0254V75.4717C659.065 74.3643 658.969 73.3271 658.775 72.3604C658.6 71.376 658.301 70.5059 657.879 69.75C657.457 68.9941 656.895 68.4053 656.191 67.9834C655.506 67.5615 654.653 67.3506 653.634 67.3506C652.649 67.3506 651.814 67.5615 651.129 67.9834C650.443 68.4053 649.89 68.9941 649.468 69.75C649.046 70.5059 648.738 71.376 648.545 72.3604C648.369 73.3271 648.281 74.3643 648.281 75.4717ZM679.896 68.1152V90H671.669V61.4707H679.395L679.896 68.1152ZM688.412 61.2598L688.28 68.9326C687.929 68.8799 687.472 68.8359 686.909 68.8008C686.347 68.748 685.863 68.7217 685.459 68.7217C684.404 68.7217 683.49 68.8535 682.717 69.1172C681.961 69.3633 681.328 69.7324 680.818 70.2246C680.326 70.7168 679.957 71.332 679.711 72.0703C679.465 72.791 679.342 73.626 679.342 74.5752L677.786 73.8105C677.786 71.9297 677.971 70.207 678.34 68.6426C678.709 67.0781 679.245 65.7246 679.948 64.582C680.651 63.4219 681.513 62.5254 682.532 61.8926C683.552 61.2598 684.712 60.9434 686.013 60.9434C686.435 60.9434 686.865 60.9697 687.305 61.0225C687.744 61.0752 688.113 61.1543 688.412 61.2598ZM700.04 67.4561V90H691.813V61.4707H699.539L700.04 67.4561ZM698.985 74.7334L696.902 74.7861C696.902 72.7822 697.14 70.9453 697.614 69.2754C698.106 67.5879 698.818 66.1201 699.75 64.8721C700.682 63.624 701.833 62.6572 703.204 61.9717C704.593 61.2861 706.192 60.9434 708.003 60.9434C709.269 60.9434 710.42 61.1367 711.457 61.5234C712.494 61.8926 713.382 62.4814 714.12 63.29C714.876 64.0811 715.456 65.1182 715.86 66.4014C716.265 67.667 716.467 69.1875 716.467 70.9629V90H708.24V71.9648C708.24 70.6992 708.082 69.7412 707.766 69.0908C707.467 68.4229 707.027 67.9658 706.447 67.7197C705.867 67.4736 705.173 67.3506 704.364 67.3506C703.485 67.3506 702.703 67.5439 702.018 67.9307C701.35 68.2998 700.787 68.8184 700.33 69.4863C699.873 70.1543 699.53 70.9365 699.302 71.833C699.091 72.7295 698.985 73.6963 698.985 74.7334ZM715.623 74.3115L713.013 74.5225C713.013 72.5889 713.241 70.7959 713.698 69.1436C714.155 67.4912 714.841 66.0586 715.755 64.8457C716.669 63.6152 717.803 62.6572 719.156 61.9717C720.527 61.2861 722.118 60.9434 723.929 60.9434C725.265 60.9434 726.478 61.1367 727.567 61.5234C728.675 61.9102 729.624 62.5342 730.415 63.3955C731.224 64.2568 731.848 65.3906 732.287 66.7969C732.727 68.1855 732.946 69.8906 732.946 71.9121V90H724.667V71.9121C724.667 70.6641 724.509 69.7148 724.192 69.0645C723.894 68.4141 723.454 67.9658 722.874 67.7197C722.312 67.4736 721.635 67.3506 720.844 67.3506C719.965 67.3506 719.2 67.5352 718.55 67.9043C717.899 68.2559 717.354 68.748 716.915 69.3809C716.476 69.9961 716.15 70.7256 715.939 71.5693C715.729 72.4131 715.623 73.3271 715.623 74.3115Z" fill="#4CB074"/>
</svg>
