<svg width="1024" height="200" viewBox="0 0 1024 200" fill="none" xmlns="http://www.w3.org/2000/svg">
<rect width="1024" height="200" fill="#F1F1F1"/>
<path d="M319.308 148.456C319.308 149.632 319.019 150.659 318.44 151.536C317.861 152.413 317.021 153.095 315.92 153.58C314.837 154.047 313.512 154.28 311.944 154.28C311.253 154.28 310.572 154.233 309.9 154.14C309.247 154.047 308.612 153.916 307.996 153.748C307.399 153.561 306.829 153.337 306.288 153.076V149.128C307.24 149.539 308.22 149.921 309.228 150.276C310.255 150.612 311.272 150.78 312.28 150.78C312.971 150.78 313.521 150.687 313.932 150.5C314.361 150.313 314.669 150.061 314.856 149.744C315.061 149.427 315.164 149.063 315.164 148.652C315.164 148.148 314.987 147.719 314.632 147.364C314.296 147.009 313.839 146.683 313.26 146.384C312.681 146.067 312.019 145.731 311.272 145.376C310.805 145.152 310.301 144.891 309.76 144.592C309.219 144.275 308.696 143.892 308.192 143.444C307.707 142.977 307.305 142.417 306.988 141.764C306.671 141.111 306.512 140.327 306.512 139.412C306.512 138.217 306.783 137.2 307.324 136.36C307.884 135.501 308.668 134.848 309.676 134.4C310.703 133.952 311.907 133.728 313.288 133.728C314.333 133.728 315.323 133.849 316.256 134.092C317.208 134.335 318.197 134.68 319.224 135.128L317.852 138.432C316.937 138.059 316.116 137.769 315.388 137.564C314.66 137.359 313.913 137.256 313.148 137.256C312.625 137.256 312.177 137.34 311.804 137.508C311.431 137.676 311.141 137.909 310.936 138.208C310.749 138.507 310.656 138.861 310.656 139.272C310.656 139.739 310.796 140.14 311.076 140.476C311.356 140.793 311.776 141.101 312.336 141.4C312.896 141.699 313.596 142.053 314.436 142.464C315.463 142.949 316.331 143.453 317.04 143.976C317.768 144.499 318.328 145.115 318.72 145.824C319.112 146.533 319.308 147.411 319.308 148.456ZM326.778 138.712V154H322.606V138.712H326.778ZM324.706 132.72C325.322 132.72 325.854 132.869 326.302 133.168C326.75 133.448 326.974 133.98 326.974 134.764C326.974 135.529 326.75 136.061 326.302 136.36C325.854 136.659 325.322 136.808 324.706 136.808C324.071 136.808 323.53 136.659 323.082 136.36C322.653 136.061 322.438 135.529 322.438 134.764C322.438 133.98 322.653 133.448 323.082 133.168C323.53 132.869 324.071 132.72 324.706 132.72ZM349.085 138.432C350.821 138.432 352.128 138.88 353.005 139.776C353.901 140.653 354.349 142.072 354.349 144.032V154H350.177V145.068C350.177 143.967 349.99 143.145 349.617 142.604C349.244 142.044 348.665 141.764 347.881 141.764C346.78 141.764 345.996 142.156 345.529 142.94C345.062 143.724 344.829 144.853 344.829 146.328V154H340.657V145.068C340.657 144.34 340.573 143.733 340.405 143.248C340.237 142.763 339.985 142.399 339.649 142.156C339.313 141.895 338.884 141.764 338.361 141.764C337.596 141.764 336.989 141.96 336.541 142.352C336.093 142.744 335.776 143.313 335.589 144.06C335.402 144.807 335.309 145.721 335.309 146.804V154H331.137V138.712H334.329L334.889 140.672H335.113C335.43 140.149 335.822 139.729 336.289 139.412C336.756 139.076 337.269 138.833 337.829 138.684C338.408 138.516 338.986 138.432 339.565 138.432C340.685 138.432 341.637 138.619 342.421 138.992C343.205 139.347 343.802 139.907 344.213 140.672H344.577C345.044 139.888 345.688 139.319 346.509 138.964C347.349 138.609 348.208 138.432 349.085 138.432ZM367.157 138.432C368.874 138.432 370.265 139.104 371.329 140.448C372.393 141.773 372.925 143.733 372.925 146.328C372.925 148.064 372.673 149.529 372.169 150.724C371.665 151.9 370.974 152.787 370.097 153.384C369.22 153.981 368.202 154.28 367.045 154.28C366.317 154.28 365.682 154.187 365.141 154C364.618 153.813 364.17 153.571 363.797 153.272C363.424 152.973 363.097 152.656 362.817 152.32H362.593C362.668 152.675 362.724 153.048 362.761 153.44C362.798 153.813 362.817 154.187 362.817 154.56V160.72H358.645V138.712H362.033L362.621 140.7H362.817C363.097 140.289 363.433 139.916 363.825 139.58C364.217 139.225 364.684 138.945 365.225 138.74C365.785 138.535 366.429 138.432 367.157 138.432ZM365.813 141.764C365.085 141.764 364.506 141.913 364.077 142.212C363.648 142.511 363.33 142.968 363.125 143.584C362.938 144.181 362.836 144.937 362.817 145.852V146.3C362.817 147.289 362.91 148.129 363.097 148.82C363.284 149.492 363.601 150.005 364.049 150.36C364.497 150.715 365.104 150.892 365.869 150.892C366.504 150.892 367.026 150.715 367.437 150.36C367.848 150.005 368.156 149.483 368.361 148.792C368.566 148.101 368.669 147.261 368.669 146.272C368.669 144.779 368.436 143.659 367.969 142.912C367.521 142.147 366.802 141.764 365.813 141.764ZM380.536 154H376.364V132.72H380.536V154ZM391.195 138.432C392.614 138.432 393.827 138.703 394.835 139.244C395.862 139.785 396.655 140.569 397.215 141.596C397.775 142.623 398.055 143.883 398.055 145.376V147.392H388.199C388.236 148.568 388.582 149.492 389.235 150.164C389.907 150.836 390.831 151.172 392.007 151.172C392.996 151.172 393.892 151.079 394.695 150.892C395.498 150.687 396.328 150.379 397.187 149.968V153.188C396.44 153.561 395.647 153.832 394.807 154C393.986 154.187 392.987 154.28 391.811 154.28C390.28 154.28 388.927 154 387.751 153.44C386.575 152.861 385.651 151.993 384.979 150.836C384.307 149.679 383.971 148.223 383.971 146.468C383.971 144.676 384.27 143.192 384.867 142.016C385.483 140.821 386.332 139.925 387.415 139.328C388.498 138.731 389.758 138.432 391.195 138.432ZM391.223 141.4C390.42 141.4 389.748 141.661 389.207 142.184C388.684 142.707 388.376 143.519 388.283 144.62H394.135C394.135 144.004 394.023 143.453 393.799 142.968C393.594 142.483 393.276 142.1 392.847 141.82C392.418 141.54 391.876 141.4 391.223 141.4ZM405.526 151.06C405.358 151.713 405.143 152.423 404.882 153.188C404.621 153.935 404.341 154.681 404.042 155.428C403.743 156.193 403.435 156.921 403.118 157.612H400.122C400.309 156.865 400.486 156.081 400.654 155.26C400.822 154.457 400.981 153.664 401.13 152.88C401.279 152.096 401.401 151.387 401.494 150.752H405.33L405.526 151.06ZM428.54 154H417.032V134.008H428.54V137.48H421.26V141.876H428.036V145.348H421.26V150.5H428.54V154ZM438.636 138.404C440.689 138.404 442.257 138.852 443.34 139.748C444.441 140.625 444.992 141.979 444.992 143.808V154H442.08L441.268 151.928H441.156C440.726 152.469 440.278 152.917 439.812 153.272C439.364 153.627 438.841 153.879 438.244 154.028C437.665 154.196 436.946 154.28 436.088 154.28C435.192 154.28 434.38 154.112 433.652 153.776C432.942 153.421 432.382 152.889 431.972 152.18C431.561 151.452 431.356 150.537 431.356 149.436C431.356 147.812 431.925 146.617 433.064 145.852C434.202 145.068 435.91 144.639 438.188 144.564L440.848 144.48V143.808C440.848 143.005 440.633 142.417 440.204 142.044C439.793 141.671 439.214 141.484 438.468 141.484C437.721 141.484 436.993 141.596 436.284 141.82C435.574 142.025 434.865 142.287 434.156 142.604L432.784 139.776C433.605 139.347 434.51 139.011 435.5 138.768C436.508 138.525 437.553 138.404 438.636 138.404ZM439.224 146.972C437.88 147.009 436.946 147.252 436.424 147.7C435.901 148.148 435.64 148.736 435.64 149.464C435.64 150.099 435.826 150.556 436.2 150.836C436.573 151.097 437.058 151.228 437.656 151.228C438.552 151.228 439.308 150.967 439.924 150.444C440.54 149.903 440.848 149.147 440.848 148.176V146.916L439.224 146.972ZM459.93 149.464C459.93 150.491 459.687 151.368 459.202 152.096C458.717 152.805 457.989 153.347 457.018 153.72C456.047 154.093 454.843 154.28 453.406 154.28C452.342 154.28 451.427 154.205 450.662 154.056C449.897 153.925 449.131 153.701 448.366 153.384V149.94C449.187 150.313 450.074 150.621 451.026 150.864C451.978 151.107 452.818 151.228 453.546 151.228C454.367 151.228 454.946 151.107 455.282 150.864C455.637 150.621 455.814 150.304 455.814 149.912C455.814 149.651 455.739 149.417 455.59 149.212C455.459 149.007 455.161 148.773 454.694 148.512C454.227 148.251 453.499 147.915 452.51 147.504C451.558 147.093 450.774 146.692 450.158 146.3C449.542 145.889 449.085 145.404 448.786 144.844C448.487 144.265 448.338 143.547 448.338 142.688C448.338 141.269 448.889 140.205 449.99 139.496C451.091 138.787 452.557 138.432 454.386 138.432C455.338 138.432 456.243 138.525 457.102 138.712C457.961 138.899 458.847 139.207 459.762 139.636L458.502 142.632C457.998 142.408 457.513 142.212 457.046 142.044C456.579 141.876 456.122 141.745 455.674 141.652C455.245 141.559 454.797 141.512 454.33 141.512C453.714 141.512 453.247 141.596 452.93 141.764C452.631 141.932 452.482 142.184 452.482 142.52C452.482 142.763 452.557 142.987 452.706 143.192C452.874 143.379 453.182 143.584 453.63 143.808C454.097 144.032 454.778 144.331 455.674 144.704C456.551 145.059 457.307 145.432 457.942 145.824C458.577 146.197 459.062 146.673 459.398 147.252C459.753 147.812 459.93 148.549 459.93 149.464ZM460.996 138.712H465.56L468.444 147.308C468.537 147.588 468.612 147.868 468.668 148.148C468.743 148.428 468.799 148.717 468.836 149.016C468.892 149.315 468.929 149.632 468.948 149.968H469.032C469.088 149.483 469.163 149.025 469.256 148.596C469.368 148.148 469.489 147.719 469.62 147.308L472.448 138.712H476.928L470.46 155.96C470.068 157.005 469.555 157.883 468.92 158.592C468.304 159.301 467.585 159.833 466.764 160.188C465.943 160.543 465.047 160.72 464.076 160.72C463.609 160.72 463.199 160.692 462.844 160.636C462.508 160.599 462.209 160.552 461.948 160.496V157.192C462.153 157.229 462.396 157.267 462.676 157.304C462.975 157.341 463.283 157.36 463.6 157.36C464.179 157.36 464.673 157.239 465.084 156.996C465.513 156.753 465.868 156.417 466.148 155.988C466.428 155.577 466.652 155.129 466.82 154.644L467.072 153.888L460.996 138.712ZM492.835 150.948C493.302 150.948 493.75 150.901 494.179 150.808C494.608 150.715 495.038 150.603 495.467 150.472V153.58C495.019 153.767 494.459 153.925 493.787 154.056C493.134 154.205 492.415 154.28 491.631 154.28C490.716 154.28 489.895 154.131 489.167 153.832C488.458 153.533 487.888 153.02 487.459 152.292C487.048 151.545 486.843 150.519 486.843 149.212V141.848H484.855V140.084L487.151 138.684L488.355 135.464H491.015V138.712H495.299V141.848H491.015V149.212C491.015 149.791 491.183 150.229 491.519 150.528C491.855 150.808 492.294 150.948 492.835 150.948ZM512.424 146.328C512.424 147.597 512.246 148.727 511.892 149.716C511.556 150.705 511.061 151.545 510.408 152.236C509.773 152.908 508.998 153.421 508.084 153.776C507.169 154.112 506.133 154.28 504.976 154.28C503.912 154.28 502.922 154.112 502.008 153.776C501.112 153.421 500.337 152.908 499.684 152.236C499.03 151.545 498.517 150.705 498.144 149.716C497.789 148.727 497.612 147.597 497.612 146.328C497.612 144.629 497.91 143.201 498.508 142.044C499.105 140.868 499.964 139.972 501.084 139.356C502.204 138.74 503.529 138.432 505.06 138.432C506.497 138.432 507.766 138.74 508.868 139.356C509.969 139.972 510.837 140.868 511.472 142.044C512.106 143.201 512.424 144.629 512.424 146.328ZM501.868 146.328C501.868 147.336 501.97 148.185 502.176 148.876C502.4 149.548 502.745 150.061 503.212 150.416C503.678 150.752 504.285 150.92 505.032 150.92C505.778 150.92 506.376 150.752 506.824 150.416C507.29 150.061 507.626 149.548 507.832 148.876C508.056 148.185 508.168 147.336 508.168 146.328C508.168 145.32 508.056 144.48 507.832 143.808C507.626 143.136 507.29 142.632 506.824 142.296C506.357 141.96 505.75 141.792 505.004 141.792C503.902 141.792 503.1 142.175 502.596 142.94C502.11 143.687 501.868 144.816 501.868 146.328ZM537.173 138.712V154H533.981L533.421 152.04H533.197C532.88 152.563 532.469 152.992 531.965 153.328C531.48 153.645 530.938 153.879 530.341 154.028C529.744 154.196 529.128 154.28 528.493 154.28C527.41 154.28 526.458 154.084 525.637 153.692C524.816 153.3 524.181 152.693 523.733 151.872C523.285 151.051 523.061 149.987 523.061 148.68V138.712H527.233V147.644C527.233 148.727 527.429 149.548 527.821 150.108C528.213 150.668 528.838 150.948 529.697 150.948C530.556 150.948 531.218 150.752 531.685 150.36C532.17 149.968 532.506 149.399 532.693 148.652C532.898 147.905 533.001 146.991 533.001 145.908V138.712H537.173ZM552.215 149.464C552.215 150.491 551.973 151.368 551.487 152.096C551.002 152.805 550.274 153.347 549.303 153.72C548.333 154.093 547.129 154.28 545.691 154.28C544.627 154.28 543.713 154.205 542.947 154.056C542.182 153.925 541.417 153.701 540.651 153.384V149.94C541.473 150.313 542.359 150.621 543.311 150.864C544.263 151.107 545.103 151.228 545.831 151.228C546.653 151.228 547.231 151.107 547.567 150.864C547.922 150.621 548.099 150.304 548.099 149.912C548.099 149.651 548.025 149.417 547.875 149.212C547.745 149.007 547.446 148.773 546.979 148.512C546.513 148.251 545.785 147.915 544.795 147.504C543.843 147.093 543.059 146.692 542.443 146.3C541.827 145.889 541.37 145.404 541.071 144.844C540.773 144.265 540.623 143.547 540.623 142.688C540.623 141.269 541.174 140.205 542.275 139.496C543.377 138.787 544.842 138.432 546.671 138.432C547.623 138.432 548.529 138.525 549.387 138.712C550.246 138.899 551.133 139.207 552.047 139.636L550.787 142.632C550.283 142.408 549.798 142.212 549.331 142.044C548.865 141.876 548.407 141.745 547.959 141.652C547.53 141.559 547.082 141.512 546.615 141.512C545.999 141.512 545.533 141.596 545.215 141.764C544.917 141.932 544.767 142.184 544.767 142.52C544.767 142.763 544.842 142.987 544.991 143.192C545.159 143.379 545.467 143.584 545.915 143.808C546.382 144.032 547.063 144.331 547.959 144.704C548.837 145.059 549.593 145.432 550.227 145.824C550.862 146.197 551.347 146.673 551.683 147.252C552.038 147.812 552.215 148.549 552.215 149.464ZM561.765 138.432C563.184 138.432 564.397 138.703 565.405 139.244C566.432 139.785 567.225 140.569 567.785 141.596C568.345 142.623 568.625 143.883 568.625 145.376V147.392H558.769C558.807 148.568 559.152 149.492 559.805 150.164C560.477 150.836 561.401 151.172 562.577 151.172C563.567 151.172 564.463 151.079 565.265 150.892C566.068 150.687 566.899 150.379 567.757 149.968V153.188C567.011 153.561 566.217 153.832 565.377 154C564.556 154.187 563.557 154.28 562.381 154.28C560.851 154.28 559.497 154 558.321 153.44C557.145 152.861 556.221 151.993 555.549 150.836C554.877 149.679 554.541 148.223 554.541 146.468C554.541 144.676 554.84 143.192 555.437 142.016C556.053 140.821 556.903 139.925 557.985 139.328C559.068 138.731 560.328 138.432 561.765 138.432ZM561.793 141.4C560.991 141.4 560.319 141.661 559.777 142.184C559.255 142.707 558.947 143.519 558.853 144.62H564.705C564.705 144.004 564.593 143.453 564.369 142.968C564.164 142.483 563.847 142.1 563.417 141.82C562.988 141.54 562.447 141.4 561.793 141.4ZM576.096 151.06C575.928 151.713 575.714 152.423 575.452 153.188C575.191 153.935 574.911 154.681 574.612 155.428C574.314 156.193 574.006 156.921 573.688 157.612H570.692C570.879 156.865 571.056 156.081 571.224 155.26C571.392 154.457 571.551 153.664 571.7 152.88C571.85 152.096 571.971 151.387 572.064 150.752H575.9L576.096 151.06ZM593.986 134.008C596.562 134.008 598.438 134.568 599.614 135.688C600.809 136.789 601.406 138.311 601.406 140.252C601.406 141.129 601.275 141.969 601.014 142.772C600.753 143.556 600.314 144.265 599.698 144.9C599.101 145.516 598.307 146.001 597.318 146.356C596.329 146.711 595.106 146.888 593.65 146.888H591.83V154H587.602V134.008H593.986ZM593.762 137.48H591.83V143.416H593.23C594.033 143.416 594.723 143.313 595.302 143.108C595.881 142.903 596.329 142.576 596.646 142.128C596.963 141.68 597.122 141.101 597.122 140.392C597.122 139.403 596.851 138.675 596.31 138.208C595.769 137.723 594.919 137.48 593.762 137.48ZM618.736 146.328C618.736 147.597 618.559 148.727 618.204 149.716C617.868 150.705 617.373 151.545 616.72 152.236C616.085 152.908 615.311 153.421 614.396 153.776C613.481 154.112 612.445 154.28 611.288 154.28C610.224 154.28 609.235 154.112 608.32 153.776C607.424 153.421 606.649 152.908 605.996 152.236C605.343 151.545 604.829 150.705 604.456 149.716C604.101 148.727 603.924 147.597 603.924 146.328C603.924 144.629 604.223 143.201 604.82 142.044C605.417 140.868 606.276 139.972 607.396 139.356C608.516 138.74 609.841 138.432 611.372 138.432C612.809 138.432 614.079 138.74 615.18 139.356C616.281 139.972 617.149 140.868 617.784 142.044C618.419 143.201 618.736 144.629 618.736 146.328ZM608.18 146.328C608.18 147.336 608.283 148.185 608.488 148.876C608.712 149.548 609.057 150.061 609.524 150.416C609.991 150.752 610.597 150.92 611.344 150.92C612.091 150.92 612.688 150.752 613.136 150.416C613.603 150.061 613.939 149.548 614.144 148.876C614.368 148.185 614.48 147.336 614.48 146.328C614.48 145.32 614.368 144.48 614.144 143.808C613.939 143.136 613.603 142.632 613.136 142.296C612.669 141.96 612.063 141.792 611.316 141.792C610.215 141.792 609.412 142.175 608.908 142.94C608.423 143.687 608.18 144.816 608.18 146.328ZM633.033 148.652C632.958 148.335 632.846 147.868 632.697 147.252C632.566 146.617 632.417 145.945 632.249 145.236C632.081 144.508 631.922 143.845 631.773 143.248C631.624 142.632 631.521 142.184 631.465 141.904H631.353C631.297 142.184 631.194 142.632 631.045 143.248C630.914 143.845 630.765 144.508 630.597 145.236C630.429 145.945 630.27 146.617 630.121 147.252C629.972 147.887 629.86 148.372 629.785 148.708L628.553 154H624.073L619.733 138.712H623.877L625.641 145.488C625.772 145.955 625.884 146.515 625.977 147.168C626.089 147.821 626.192 148.456 626.285 149.072C626.378 149.669 626.444 150.145 626.481 150.5H626.593C626.612 150.239 626.649 149.893 626.705 149.464C626.761 149.016 626.826 148.559 626.901 148.092C626.994 147.625 627.069 147.205 627.125 146.832C627.2 146.44 627.256 146.179 627.293 146.048L629.169 138.712H633.761L635.553 146.048C635.628 146.309 635.712 146.729 635.805 147.308C635.917 147.887 636.01 148.475 636.085 149.072C636.178 149.669 636.225 150.145 636.225 150.5H636.337C636.374 150.183 636.44 149.725 636.533 149.128C636.626 148.512 636.729 147.868 636.841 147.196C636.972 146.524 637.102 145.955 637.233 145.488L639.053 138.712H643.141L638.745 154H634.209L633.033 148.652ZM651.918 138.432C653.336 138.432 654.55 138.703 655.558 139.244C656.584 139.785 657.378 140.569 657.938 141.596C658.498 142.623 658.778 143.883 658.778 145.376V147.392H648.922C648.959 148.568 649.304 149.492 649.958 150.164C650.63 150.836 651.554 151.172 652.73 151.172C653.719 151.172 654.615 151.079 655.418 150.892C656.22 150.687 657.051 150.379 657.91 149.968V153.188C657.163 153.561 656.37 153.832 655.53 154C654.708 154.187 653.71 154.28 652.534 154.28C651.003 154.28 649.65 154 648.474 153.44C647.298 152.861 646.374 151.993 645.702 150.836C645.03 149.679 644.694 148.223 644.694 146.468C644.694 144.676 644.992 143.192 645.59 142.016C646.206 140.821 647.055 139.925 648.138 139.328C649.22 138.731 650.48 138.432 651.918 138.432ZM651.946 141.4C651.143 141.4 650.471 141.661 649.93 142.184C649.407 142.707 649.099 143.519 649.006 144.62H654.858C654.858 144.004 654.746 143.453 654.522 142.968C654.316 142.483 653.999 142.1 653.57 141.82C653.14 141.54 652.599 141.4 651.946 141.4ZM670.701 138.432C670.906 138.432 671.149 138.441 671.429 138.46C671.709 138.479 671.933 138.507 672.101 138.544L671.793 142.464C671.662 142.427 671.466 142.399 671.205 142.38C670.962 142.343 670.747 142.324 670.561 142.324C670.019 142.324 669.497 142.399 668.993 142.548C668.489 142.679 668.031 142.893 667.621 143.192C667.229 143.491 666.911 143.892 666.669 144.396C666.445 144.881 666.333 145.488 666.333 146.216V154H662.161V138.712H665.325L665.941 141.288H666.137C666.435 140.765 666.809 140.289 667.257 139.86C667.705 139.431 668.218 139.085 668.797 138.824C669.394 138.563 670.029 138.432 670.701 138.432ZM683.331 141.848H679.719V154H675.547V141.848H673.251V139.832L675.547 138.712V137.592C675.547 136.285 675.762 135.277 676.191 134.568C676.639 133.84 677.265 133.327 678.067 133.028C678.889 132.729 679.85 132.58 680.951 132.58C681.773 132.58 682.51 132.645 683.163 132.776C683.835 132.907 684.377 133.056 684.787 133.224L683.723 136.276C683.406 136.183 683.061 136.099 682.687 136.024C682.314 135.931 681.885 135.884 681.399 135.884C680.821 135.884 680.391 136.061 680.111 136.416C679.85 136.771 679.719 137.219 679.719 137.76V138.712H683.331V141.848ZM699.732 138.712V154H696.54L695.98 152.04H695.756C695.438 152.563 695.028 152.992 694.524 153.328C694.038 153.645 693.497 153.879 692.9 154.028C692.302 154.196 691.686 154.28 691.052 154.28C689.969 154.28 689.017 154.084 688.196 153.692C687.374 153.3 686.74 152.693 686.292 151.872C685.844 151.051 685.62 149.987 685.62 148.68V138.712H689.792V147.644C689.792 148.727 689.988 149.548 690.38 150.108C690.772 150.668 691.397 150.948 692.256 150.948C693.114 150.948 693.777 150.752 694.244 150.36C694.729 149.968 695.065 149.399 695.252 148.652C695.457 147.905 695.56 146.991 695.56 145.908V138.712H699.732ZM708.278 154H704.106V132.72H708.278V154ZM716.137 147.364H712.805L712.105 134.008H716.837L716.137 147.364ZM712.049 152.04C712.049 151.181 712.282 150.584 712.749 150.248C713.216 149.893 713.785 149.716 714.457 149.716C715.11 149.716 715.67 149.893 716.137 150.248C716.604 150.584 716.837 151.181 716.837 152.04C716.837 152.861 716.604 153.459 716.137 153.832C715.67 154.187 715.11 154.364 714.457 154.364C713.785 154.364 713.216 154.187 712.749 153.832C712.282 153.459 712.049 152.861 712.049 152.04Z" fill="black"/>
<path d="M279.416 55.444C282.908 55.444 285.788 55.876 288.056 56.74C290.36 57.568 292.088 58.846 293.24 60.574C294.392 62.266 294.968 64.39 294.968 66.946C294.968 68.602 294.662 70.078 294.05 71.374C293.438 72.67 292.61 73.804 291.566 74.776C290.558 75.748 289.388 76.558 288.056 77.206L299.342 94H289.028L280.334 79.528H276.716V94H267.536V55.444H279.416ZM279.038 62.68H276.716V72.346H279.038C280.514 72.346 281.738 72.184 282.71 71.86C283.682 71.5 284.402 70.942 284.87 70.186C285.374 69.394 285.626 68.422 285.626 67.27C285.626 66.226 285.392 65.38 284.924 64.732C284.456 64.048 283.736 63.544 282.764 63.22C281.792 62.86 280.55 62.68 279.038 62.68ZM315.756 63.814C318.564 63.814 320.976 64.336 322.992 65.38C325.044 66.388 326.61 67.9 327.69 69.916C328.806 71.896 329.364 74.362 329.364 77.314V81.526H310.626C310.698 83.47 311.328 85.018 312.516 86.17C313.704 87.322 315.396 87.898 317.592 87.898C319.5 87.898 321.228 87.718 322.776 87.358C324.324 86.998 325.926 86.422 327.582 85.63V92.38C326.142 93.136 324.594 93.676 322.938 94C321.282 94.36 319.248 94.54 316.836 94.54C313.848 94.54 311.184 94 308.844 92.92C306.54 91.84 304.722 90.184 303.39 87.952C302.094 85.684 301.446 82.822 301.446 79.366C301.446 75.838 302.04 72.94 303.228 70.672C304.416 68.368 306.09 66.658 308.25 65.542C310.41 64.39 312.912 63.814 315.756 63.814ZM315.918 70.132C314.514 70.132 313.344 70.582 312.408 71.482C311.508 72.346 310.968 73.732 310.788 75.64H320.994C320.994 74.596 320.796 73.66 320.4 72.832C320.04 72.004 319.482 71.356 318.726 70.888C317.97 70.384 317.034 70.132 315.918 70.132ZM348.779 63.76C352.631 63.76 355.619 64.66 357.743 66.46C359.867 68.224 360.929 70.852 360.929 74.344V94H354.611L352.829 90.004H352.613C351.785 91.048 350.921 91.912 350.021 92.596C349.157 93.28 348.149 93.766 346.997 94.054C345.881 94.378 344.495 94.54 342.839 94.54C341.111 94.54 339.545 94.198 338.141 93.514C336.773 92.83 335.693 91.786 334.901 90.382C334.109 88.978 333.713 87.196 333.713 85.036C333.713 81.868 334.811 79.528 337.007 78.016C339.239 76.504 342.497 75.658 346.781 75.478L351.857 75.316V74.452C351.857 73.012 351.479 71.968 350.723 71.32C350.003 70.672 348.995 70.348 347.699 70.348C346.403 70.348 345.053 70.564 343.649 70.996C342.245 71.392 340.823 71.896 339.383 72.508L336.629 66.46C338.249 65.596 340.085 64.93 342.137 64.462C344.189 63.994 346.403 63.76 348.779 63.76ZM349.103 80.608C346.835 80.68 345.251 81.094 344.351 81.85C343.451 82.57 343.001 83.56 343.001 84.82C343.001 85.936 343.325 86.746 343.973 87.25C344.621 87.754 345.449 88.006 346.457 88.006C347.969 88.006 349.247 87.556 350.291 86.656C351.335 85.72 351.857 84.46 351.857 82.876V80.5L349.103 80.608ZM381.357 94.54C378.405 94.54 375.849 94.018 373.689 92.974C371.565 91.894 369.927 90.238 368.775 88.006C367.659 85.738 367.101 82.84 367.101 79.312C367.101 75.712 367.731 72.778 368.991 70.51C370.287 68.206 372.069 66.514 374.337 65.434C376.605 64.354 379.197 63.814 382.113 63.814C384.057 63.814 385.803 64.012 387.351 64.408C388.935 64.804 390.339 65.308 391.563 65.92L388.917 72.778C387.657 72.274 386.487 71.86 385.407 71.536C384.327 71.212 383.229 71.05 382.113 71.05C380.889 71.05 379.845 71.356 378.981 71.968C378.117 72.544 377.451 73.444 376.983 74.668C376.551 75.892 376.335 77.422 376.335 79.258C376.335 81.094 376.569 82.606 377.037 83.794C377.505 84.946 378.171 85.81 379.035 86.386C379.899 86.962 380.943 87.25 382.167 87.25C383.751 87.25 385.227 87.016 386.595 86.548C387.999 86.08 389.331 85.45 390.591 84.658V92.11C389.367 92.902 388.035 93.514 386.595 93.946C385.155 94.342 383.409 94.54 381.357 94.54ZM410.482 87.304C411.418 87.304 412.282 87.214 413.074 87.034C413.866 86.854 414.676 86.62 415.504 86.332V93.028C414.532 93.46 413.416 93.82 412.156 94.108C410.896 94.396 409.402 94.54 407.674 94.54C405.838 94.54 404.2 94.252 402.76 93.676C401.356 93.064 400.24 92.038 399.412 90.598C398.62 89.122 398.224 87.088 398.224 84.496V71.158H394.444V67.378L398.98 64.462L401.464 58.198H407.296V64.354H415.18V71.158H407.296V84.172C407.296 85.216 407.584 86.008 408.16 86.548C408.736 87.052 409.51 87.304 410.482 87.304ZM468.049 94H458.869V77.8H445.045V94H435.811V55.444H445.045V70.186H458.869V55.444H468.049V94ZM489.738 63.76C493.59 63.76 496.578 64.66 498.702 66.46C500.826 68.224 501.888 70.852 501.888 74.344V94H495.57L493.788 90.004H493.572C492.744 91.048 491.88 91.912 490.98 92.596C490.116 93.28 489.108 93.766 487.956 94.054C486.84 94.378 485.454 94.54 483.798 94.54C482.07 94.54 480.504 94.198 479.1 93.514C477.732 92.83 476.652 91.786 475.86 90.382C475.068 88.978 474.672 87.196 474.672 85.036C474.672 81.868 475.77 79.528 477.966 78.016C480.198 76.504 483.456 75.658 487.74 75.478L492.816 75.316V74.452C492.816 73.012 492.438 71.968 491.682 71.32C490.962 70.672 489.954 70.348 488.658 70.348C487.362 70.348 486.012 70.564 484.608 70.996C483.204 71.392 481.782 71.896 480.342 72.508L477.588 66.46C479.208 65.596 481.044 64.93 483.096 64.462C485.148 63.994 487.362 63.76 489.738 63.76ZM490.062 80.608C487.794 80.68 486.21 81.094 485.31 81.85C484.41 82.57 483.96 83.56 483.96 84.82C483.96 85.936 484.284 86.746 484.932 87.25C485.58 87.754 486.408 88.006 487.416 88.006C488.928 88.006 490.206 87.556 491.25 86.656C492.294 85.72 492.816 84.46 492.816 82.876V80.5L490.062 80.608ZM526.852 63.814C530.164 63.814 532.81 65.128 534.79 67.756C536.77 70.348 537.76 74.128 537.76 79.096C537.76 82.48 537.274 85.324 536.302 87.628C535.33 89.932 533.998 91.66 532.306 92.812C530.65 93.964 528.742 94.54 526.582 94.54C525.178 94.54 523.972 94.36 522.964 94C521.992 93.64 521.146 93.19 520.426 92.65C519.742 92.074 519.166 91.498 518.698 90.922H518.32C518.428 91.606 518.518 92.326 518.59 93.082C518.662 93.838 518.698 94.648 518.698 95.512V106.96H509.572V64.354H516.97L518.266 68.134H518.698C519.202 67.342 519.814 66.622 520.534 65.974C521.29 65.326 522.19 64.804 523.234 64.408C524.278 64.012 525.484 63.814 526.852 63.814ZM523.666 70.996C522.442 70.996 521.47 71.266 520.75 71.806C520.066 72.346 519.562 73.156 519.238 74.236C518.914 75.28 518.734 76.612 518.698 78.232V79.042C518.698 80.806 518.842 82.3 519.13 83.524C519.454 84.712 519.976 85.63 520.696 86.278C521.452 86.89 522.478 87.196 523.774 87.196C524.818 87.196 525.682 86.908 526.366 86.332C527.086 85.72 527.608 84.802 527.932 83.578C528.292 82.354 528.472 80.824 528.472 78.988C528.472 76.216 528.076 74.2 527.284 72.94C526.492 71.644 525.286 70.996 523.666 70.996ZM561.287 63.814C564.599 63.814 567.245 65.128 569.225 67.756C571.205 70.348 572.195 74.128 572.195 79.096C572.195 82.48 571.709 85.324 570.737 87.628C569.765 89.932 568.433 91.66 566.741 92.812C565.085 93.964 563.177 94.54 561.017 94.54C559.613 94.54 558.407 94.36 557.399 94C556.427 93.64 555.581 93.19 554.861 92.65C554.177 92.074 553.601 91.498 553.133 90.922H552.755C552.863 91.606 552.953 92.326 553.025 93.082C553.097 93.838 553.133 94.648 553.133 95.512V106.96H544.007V64.354H551.405L552.701 68.134H553.133C553.637 67.342 554.249 66.622 554.969 65.974C555.725 65.326 556.625 64.804 557.669 64.408C558.713 64.012 559.919 63.814 561.287 63.814ZM558.101 70.996C556.877 70.996 555.905 71.266 555.185 71.806C554.501 72.346 553.997 73.156 553.673 74.236C553.349 75.28 553.169 76.612 553.133 78.232V79.042C553.133 80.806 553.277 82.3 553.565 83.524C553.889 84.712 554.411 85.63 555.131 86.278C555.887 86.89 556.913 87.196 558.209 87.196C559.253 87.196 560.117 86.908 560.801 86.332C561.521 85.72 562.043 84.802 562.367 83.578C562.727 82.354 562.907 80.824 562.907 78.988C562.907 76.216 562.511 74.2 561.719 72.94C560.927 71.644 559.721 70.996 558.101 70.996ZM573.5 64.354H583.22L588.566 81.148C588.71 81.58 588.818 82.03 588.89 82.498C588.998 82.93 589.088 83.398 589.16 83.902C589.232 84.37 589.286 84.874 589.322 85.414H589.484C589.592 84.586 589.718 83.83 589.862 83.146C590.042 82.426 590.222 81.778 590.402 81.202L595.748 64.354H605.252L593.048 96.916C592.256 99.112 591.248 100.948 590.024 102.424C588.836 103.936 587.396 105.07 585.704 105.826C584.048 106.582 582.104 106.96 579.872 106.96C578.972 106.96 578.18 106.906 577.496 106.798C576.812 106.726 576.218 106.636 575.714 106.528V99.346C576.11 99.418 576.578 99.49 577.118 99.562C577.694 99.634 578.288 99.67 578.9 99.67C580.052 99.67 581.006 99.436 581.762 98.968C582.518 98.5 583.148 97.87 583.652 97.078C584.156 96.322 584.57 95.494 584.894 94.594L585.218 93.676L573.5 64.354ZM632.881 94H623.809V55.444H646.219V62.896H632.881V71.644H645.247V79.096H632.881V94ZM680.128 79.096C680.128 81.58 679.786 83.776 679.102 85.684C678.454 87.592 677.482 89.212 676.186 90.544C674.926 91.876 673.396 92.884 671.596 93.568C669.832 94.216 667.798 94.54 665.494 94.54C663.406 94.54 661.462 94.216 659.662 93.568C657.898 92.884 656.368 91.894 655.072 90.598C653.812 89.266 652.822 87.646 652.102 85.738C651.382 83.794 651.022 81.58 651.022 79.096C651.022 75.82 651.598 73.048 652.75 70.78C653.938 68.512 655.63 66.784 657.826 65.596C660.022 64.408 662.632 63.814 665.656 63.814C668.5 63.814 671.002 64.408 673.162 65.596C675.322 66.784 677.014 68.512 678.238 70.78C679.498 73.048 680.128 75.82 680.128 79.096ZM660.256 79.096C660.256 80.932 660.436 82.48 660.796 83.74C661.156 85 661.732 85.954 662.524 86.602C663.316 87.214 664.342 87.52 665.602 87.52C666.898 87.52 667.924 87.214 668.68 86.602C669.436 85.954 669.994 85 670.354 83.74C670.714 82.48 670.894 80.932 670.894 79.096C670.894 77.26 670.714 75.73 670.354 74.506C669.994 73.282 669.418 72.364 668.626 71.752C667.87 71.14 666.844 70.834 665.548 70.834C663.712 70.834 662.362 71.536 661.498 72.94C660.67 74.308 660.256 76.36 660.256 79.096ZM703.616 63.814C704.084 63.814 704.606 63.85 705.182 63.922C705.758 63.958 706.208 64.012 706.532 64.084L705.776 72.616C705.452 72.544 705.038 72.49 704.534 72.454C704.03 72.382 703.472 72.346 702.86 72.346C701.996 72.346 701.132 72.454 700.268 72.67C699.404 72.85 698.612 73.192 697.892 73.696C697.172 74.164 696.596 74.848 696.164 75.748C695.732 76.612 695.516 77.746 695.516 79.15V94H686.39V64.354H693.248L694.652 69.214H695.03C695.606 68.206 696.326 67.306 697.19 66.514C698.054 65.686 699.026 65.038 700.106 64.57C701.222 64.066 702.392 63.814 703.616 63.814ZM746.759 63.814C750.143 63.814 752.699 64.678 754.427 66.406C756.191 68.098 757.073 70.852 757.073 74.668V94H748.001V77.206C748.001 75.046 747.659 73.48 746.975 72.508C746.327 71.5 745.319 70.996 743.951 70.996C742.043 70.996 740.693 71.752 739.901 73.264C739.109 74.74 738.713 76.864 738.713 79.636V94H729.641V77.206C729.641 75.802 729.497 74.65 729.209 73.75C728.921 72.814 728.489 72.13 727.913 71.698C727.337 71.23 726.581 70.996 725.645 70.996C724.313 70.996 723.251 71.374 722.459 72.13C721.703 72.85 721.163 73.912 720.839 75.316C720.551 76.72 720.407 78.448 720.407 80.5V94H711.281V64.354H718.193L719.489 68.08H719.867C720.443 67.144 721.163 66.37 722.027 65.758C722.891 65.11 723.881 64.624 724.997 64.3C726.113 63.976 727.319 63.814 728.615 63.814C730.775 63.814 732.593 64.174 734.069 64.894C735.545 65.614 736.697 66.658 737.525 68.026H738.065C739.001 66.622 740.243 65.578 741.791 64.894C743.339 64.174 744.995 63.814 746.759 63.814Z" fill="#4CB074"/>
</svg>
